<svg width="335" height="185" viewBox="0 0 335 185" fill="none" xmlns="http://www.w3.org/2000/svg">
<rect width="335" height="185" rx="20" fill="url(#paint0_linear_410_2942)"/>
<g filter="url(#filter0_b_410_2942)">
<rect width="335" height="185" rx="20" fill="white" fill-opacity="0.03"/>
</g>
<path fill-rule="evenodd" clip-rule="evenodd" d="M0 23.9259V165C0 176.046 8.95431 185 20 185H301.466C313.251 144.921 276.414 98.7134 129.93 75.7099C49.5228 63.0828 2.87004 49.8772 0 23.9259ZM0.190598 17.2276C0.290924 16.5041 0.429951 15.793 0.60552 15.0964C0.439363 15.8154 0.301108 16.5258 0.190598 17.2276Z" fill="white" fill-opacity="0.08"/>
<path d="M288.224 22.524L281.94 37.516H277.84L274.748 25.55C274.56 24.814 274.398 24.544 273.826 24.234C272.894 23.728 271.354 23.254 270 22.958L270.092 22.524H276.692C277.123 22.5236 277.541 22.6773 277.868 22.9575C278.196 23.2377 278.413 23.6259 278.48 24.052L280.114 32.728L284.15 22.524H288.224ZM304.29 32.622C304.306 28.664 298.818 28.446 298.856 26.678C298.868 26.14 299.38 25.568 300.5 25.422C301.813 25.2974 303.134 25.5295 304.326 26.094L305.006 22.914C303.846 22.4779 302.617 22.2524 301.378 22.248C297.544 22.248 294.846 24.288 294.822 27.206C294.798 29.364 296.748 30.566 298.218 31.286C299.73 32.02 300.238 32.492 300.23 33.148C300.22 34.156 299.026 34.598 297.91 34.616C295.96 34.646 294.83 34.09 293.926 33.67L293.224 36.954C294.13 37.37 295.802 37.734 297.536 37.75C301.61 37.75 304.276 35.738 304.29 32.622ZM314.412 37.516H318L314.87 22.524H311.558C311.204 22.5207 310.857 22.6239 310.563 22.82C310.268 23.0161 310.039 23.2962 309.906 23.624L304.088 37.516H308.16L308.97 35.276H313.946L314.412 37.516ZM310.086 32.204L312.126 26.574L313.302 32.204H310.086ZM293.766 22.524L290.56 37.516H286.68L289.89 22.524H293.766Z" fill="white"/>
<defs>
<filter id="filter0_b_410_2942" x="-80" y="-80" width="495" height="345" filterUnits="userSpaceOnUse" color-interpolation-filters="sRGB">
<feFlood flood-opacity="0" result="BackgroundImageFix"/>
<feGaussianBlur in="BackgroundImage" stdDeviation="40"/>
<feComposite in2="SourceAlpha" operator="in" result="effect1_backgroundBlur_410_2942"/>
<feBlend mode="normal" in="SourceGraphic" in2="effect1_backgroundBlur_410_2942" result="shape"/>
</filter>
<linearGradient id="paint0_linear_410_2942" x1="-48" y1="-20" x2="382" y2="205.5" gradientUnits="userSpaceOnUse">
<stop offset="0.155325" stop-color="#3431C2"/>
<stop offset="0.91738" stop-color="#CD2525"/>
</linearGradient>
</defs>
</svg>
