<svg width="335" height="185" viewBox="0 0 335 185" fill="none" xmlns="http://www.w3.org/2000/svg">
<rect width="335" height="185" rx="20" fill="url(#paint0_linear_401_81)"/>
<g filter="url(#filter0_b_401_81)">
<rect width="335" height="185" rx="20" fill="white" fill-opacity="0.03"/>
</g>
<path fill-rule="evenodd" clip-rule="evenodd" d="M238.09 0H125.23L16.6774 184.725C17.758 184.906 18.868 185 20 185H315C326.046 185 335 176.046 335 165V79.5576L238.09 0Z" fill="white" fill-opacity="0.08"/>
<path fill-rule="evenodd" clip-rule="evenodd" d="M55.6321 0H20C8.95431 0 0 8.9543 0 20V165C0 176.046 8.95431 185 20 185H280.983L55.6321 0Z" fill="white" fill-opacity="0.08"/>
<path d="M28.816 155.192C28.2293 155.192 27.7013 155.096 27.232 154.904C26.7627 154.701 26.3627 154.419 26.032 154.056C25.712 153.683 25.4613 153.229 25.28 152.696C25.1093 152.163 25.024 151.565 25.024 150.904C25.024 150.072 25.1467 149.293 25.392 148.568C25.648 147.832 25.968 147.165 26.352 146.568C26.7467 145.96 27.184 145.427 27.664 144.968C28.144 144.499 28.6133 144.12 29.072 143.832H30.8C30.192 144.269 29.648 144.696 29.168 145.112C28.6987 145.528 28.2827 145.965 27.92 146.424C27.5573 146.872 27.2533 147.357 27.008 147.88C26.7627 148.392 26.56 148.973 26.4 149.624L26.48 149.656C26.7467 149.197 27.0987 148.819 27.536 148.52C27.9733 148.211 28.5387 148.056 29.232 148.056C29.7227 148.056 30.1707 148.136 30.576 148.296C30.9813 148.456 31.3333 148.685 31.632 148.984C31.9307 149.283 32.16 149.645 32.32 150.072C32.4907 150.499 32.576 150.973 32.576 151.496C32.576 152.04 32.4853 152.541 32.304 153C32.1227 153.448 31.8667 153.837 31.536 154.168C31.216 154.488 30.8213 154.739 30.352 154.92C29.8933 155.101 29.3813 155.192 28.816 155.192ZM28.8 154.056C29.568 154.056 30.16 153.848 30.576 153.432C31.0027 153.016 31.216 152.429 31.216 151.672V151.544C31.216 150.787 31.0027 150.2 30.576 149.784C30.16 149.368 29.568 149.16 28.8 149.16C28.032 149.16 27.4347 149.368 27.008 149.784C26.592 150.2 26.384 150.787 26.384 151.544V151.672C26.384 152.429 26.592 153.016 27.008 153.432C27.4347 153.848 28.032 154.056 28.8 154.056ZM38.3938 155.192C37.7111 155.192 37.1244 155.064 36.6338 154.808C36.1431 154.541 35.7378 154.163 35.4178 153.672C35.0978 153.181 34.8631 152.579 34.7138 151.864C34.5644 151.149 34.4898 150.333 34.4898 149.416C34.4898 148.509 34.5644 147.699 34.7138 146.984C34.8631 146.259 35.0978 145.651 35.4178 145.16C35.7378 144.669 36.1431 144.296 36.6338 144.04C37.1244 143.773 37.7111 143.64 38.3938 143.64C39.0764 143.64 39.6631 143.773 40.1538 144.04C40.6444 144.296 41.0498 144.669 41.3698 145.16C41.6898 145.651 41.9244 146.259 42.0738 146.984C42.2231 147.699 42.2978 148.509 42.2978 149.416C42.2978 150.333 42.2231 151.149 42.0738 151.864C41.9244 152.579 41.6898 153.181 41.3698 153.672C41.0498 154.163 40.6444 154.541 40.1538 154.808C39.6631 155.064 39.0764 155.192 38.3938 155.192ZM38.3938 154.024C38.8418 154.024 39.2258 153.939 39.5458 153.768C39.8658 153.587 40.1218 153.336 40.3138 153.016C40.5164 152.696 40.6658 152.312 40.7618 151.864C40.8578 151.405 40.9058 150.893 40.9058 150.328V148.504C40.9058 147.949 40.8578 147.443 40.7618 146.984C40.6658 146.525 40.5164 146.136 40.3138 145.816C40.1218 145.496 39.8658 145.251 39.5458 145.08C39.2258 144.899 38.8418 144.808 38.3938 144.808C37.9458 144.808 37.5618 144.899 37.2418 145.08C36.9218 145.251 36.6604 145.496 36.4578 145.816C36.2658 146.136 36.1218 146.525 36.0258 146.984C35.9298 147.443 35.8818 147.949 35.8818 148.504V150.328C35.8818 150.893 35.9298 151.405 36.0258 151.864C36.1218 152.312 36.2658 152.696 36.4578 153.016C36.6604 153.336 36.9218 153.587 37.2418 153.768C37.5618 153.939 37.9458 154.024 38.3938 154.024ZM38.3938 150.36C38.0204 150.36 37.7591 150.285 37.6098 150.136C37.4711 149.987 37.4018 149.805 37.4018 149.592V149.24C37.4018 149.027 37.4711 148.845 37.6098 148.696C37.7591 148.547 38.0204 148.472 38.3938 148.472C38.7671 148.472 39.0231 148.547 39.1618 148.696C39.3111 148.845 39.3858 149.027 39.3858 149.24V149.592C39.3858 149.805 39.3111 149.987 39.1618 150.136C39.0231 150.285 38.7671 150.36 38.3938 150.36ZM44.5475 155V153.832H47.7475V144.824H47.6355L44.8195 147.448L44.0355 146.6L46.9955 143.832H49.0915V153.832H52.0355V155H44.5475ZM54.1413 155V153.832H57.3413V144.824H57.2293L54.4133 147.448L53.6293 146.6L56.5893 143.832H58.6853V153.832H61.6293V155H54.1413ZM74.4488 150.808V149.464H79.0888V150.808H74.4488ZM93.9243 155L98.2923 144.984H93.3963V147.064H92.1963V143.832H99.6523V145.016L95.3643 155H93.9243ZM106.798 155V152.808H101.294V151.624L106.126 143.832H108.078V151.704H109.742V152.808H108.078V155H106.798ZM102.494 151.704H106.798V144.872H106.734L102.494 151.704ZM115.144 155.192C114.461 155.192 113.874 155.064 113.384 154.808C112.893 154.541 112.488 154.163 112.168 153.672C111.848 153.181 111.613 152.579 111.464 151.864C111.314 151.149 111.24 150.333 111.24 149.416C111.24 148.509 111.314 147.699 111.464 146.984C111.613 146.259 111.848 145.651 112.168 145.16C112.488 144.669 112.893 144.296 113.384 144.04C113.874 143.773 114.461 143.64 115.144 143.64C115.826 143.64 116.413 143.773 116.904 144.04C117.394 144.296 117.8 144.669 118.12 145.16C118.44 145.651 118.674 146.259 118.824 146.984C118.973 147.699 119.048 148.509 119.048 149.416C119.048 150.333 118.973 151.149 118.824 151.864C118.674 152.579 118.44 153.181 118.12 153.672C117.8 154.163 117.394 154.541 116.904 154.808C116.413 155.064 115.826 155.192 115.144 155.192ZM115.144 154.024C115.592 154.024 115.976 153.939 116.296 153.768C116.616 153.587 116.872 153.336 117.064 153.016C117.266 152.696 117.416 152.312 117.512 151.864C117.608 151.405 117.656 150.893 117.656 150.328V148.504C117.656 147.949 117.608 147.443 117.512 146.984C117.416 146.525 117.266 146.136 117.064 145.816C116.872 145.496 116.616 145.251 116.296 145.08C115.976 144.899 115.592 144.808 115.144 144.808C114.696 144.808 114.312 144.899 113.992 145.08C113.672 145.251 113.41 145.496 113.208 145.816C113.016 146.136 112.872 146.525 112.776 146.984C112.68 147.443 112.632 147.949 112.632 148.504V150.328C112.632 150.893 112.68 151.405 112.776 151.864C112.872 152.312 113.016 152.696 113.208 153.016C113.41 153.336 113.672 153.587 113.992 153.768C114.312 153.939 114.696 154.024 115.144 154.024ZM115.144 150.36C114.77 150.36 114.509 150.285 114.36 150.136C114.221 149.987 114.152 149.805 114.152 149.592V149.24C114.152 149.027 114.221 148.845 114.36 148.696C114.509 148.547 114.77 148.472 115.144 148.472C115.517 148.472 115.773 148.547 115.912 148.696C116.061 148.845 116.136 149.027 116.136 149.24V149.592C116.136 149.805 116.061 149.987 115.912 150.136C115.773 150.285 115.517 150.36 115.144 150.36ZM124.754 155.192C124.167 155.192 123.639 155.096 123.17 154.904C122.7 154.701 122.3 154.419 121.97 154.056C121.65 153.683 121.399 153.229 121.218 152.696C121.047 152.163 120.962 151.565 120.962 150.904C120.962 150.072 121.084 149.293 121.33 148.568C121.586 147.832 121.906 147.165 122.289 146.568C122.684 145.96 123.122 145.427 123.602 144.968C124.082 144.499 124.551 144.12 125.01 143.832H126.738C126.13 144.269 125.586 144.696 125.106 145.112C124.636 145.528 124.22 145.965 123.858 146.424C123.495 146.872 123.191 147.357 122.946 147.88C122.7 148.392 122.498 148.973 122.338 149.624L122.418 149.656C122.684 149.197 123.036 148.819 123.474 148.52C123.911 148.211 124.476 148.056 125.17 148.056C125.66 148.056 126.108 148.136 126.514 148.296C126.919 148.456 127.271 148.685 127.57 148.984C127.868 149.283 128.098 149.645 128.258 150.072C128.428 150.499 128.514 150.973 128.514 151.496C128.514 152.04 128.423 152.541 128.242 153C128.06 153.448 127.804 153.837 127.474 154.168C127.154 154.488 126.759 154.739 126.29 154.92C125.831 155.101 125.319 155.192 124.754 155.192ZM124.738 154.056C125.506 154.056 126.098 153.848 126.514 153.432C126.94 153.016 127.154 152.429 127.154 151.672V151.544C127.154 150.787 126.94 150.2 126.514 149.784C126.098 149.368 125.506 149.16 124.738 149.16C123.97 149.16 123.372 149.368 122.946 149.784C122.53 150.2 122.322 150.787 122.322 151.544V151.672C122.322 152.429 122.53 153.016 122.946 153.432C123.372 153.848 123.97 154.056 124.738 154.056ZM141.605 150.808V149.464H146.245V150.808H141.605ZM164.361 155V152.808H158.857V151.624L163.689 143.832H165.641V151.704H167.305V152.808H165.641V155H164.361ZM160.057 151.704H164.361V144.872H164.297L160.057 151.704ZM170.674 155L175.042 144.984H170.146V147.064H168.946V143.832H176.402V145.016L172.114 155H170.674ZM182.316 155.192C181.729 155.192 181.201 155.096 180.732 154.904C180.263 154.701 179.863 154.419 179.532 154.056C179.212 153.683 178.961 153.229 178.78 152.696C178.609 152.163 178.524 151.565 178.524 150.904C178.524 150.072 178.647 149.293 178.892 148.568C179.148 147.832 179.468 147.165 179.852 146.568C180.247 145.96 180.684 145.427 181.164 144.968C181.644 144.499 182.113 144.12 182.572 143.832H184.3C183.692 144.269 183.148 144.696 182.668 145.112C182.199 145.528 181.783 145.965 181.42 146.424C181.057 146.872 180.753 147.357 180.508 147.88C180.263 148.392 180.06 148.973 179.9 149.624L179.98 149.656C180.247 149.197 180.599 148.819 181.036 148.52C181.473 148.211 182.039 148.056 182.732 148.056C183.223 148.056 183.671 148.136 184.076 148.296C184.481 148.456 184.833 148.685 185.132 148.984C185.431 149.283 185.66 149.645 185.82 150.072C185.991 150.499 186.076 150.973 186.076 151.496C186.076 152.04 185.985 152.541 185.804 153C185.623 153.448 185.367 153.837 185.036 154.168C184.716 154.488 184.321 154.739 183.852 154.92C183.393 155.101 182.881 155.192 182.316 155.192ZM182.3 154.056C183.068 154.056 183.66 153.848 184.076 153.432C184.503 153.016 184.716 152.429 184.716 151.672V151.544C184.716 150.787 184.503 150.2 184.076 149.784C183.66 149.368 183.068 149.16 182.3 149.16C181.532 149.16 180.935 149.368 180.508 149.784C180.092 150.2 179.884 150.787 179.884 151.544V151.672C179.884 152.429 180.092 153.016 180.508 153.432C180.935 153.848 181.532 154.056 182.3 154.056ZM191.414 148.568C192.192 148.568 192.774 148.397 193.158 148.056C193.552 147.704 193.75 147.256 193.75 146.712V146.6C193.75 146.003 193.558 145.555 193.174 145.256C192.8 144.957 192.31 144.808 191.702 144.808C191.104 144.808 190.619 144.941 190.246 145.208C189.883 145.464 189.584 145.805 189.35 146.232L188.342 145.464C188.48 145.24 188.651 145.021 188.854 144.808C189.056 144.584 189.291 144.387 189.558 144.216C189.835 144.045 190.15 143.907 190.502 143.8C190.864 143.693 191.275 143.64 191.734 143.64C192.214 143.64 192.662 143.704 193.078 143.832C193.494 143.949 193.856 144.131 194.166 144.376C194.475 144.611 194.715 144.904 194.886 145.256C195.067 145.608 195.158 146.008 195.158 146.456C195.158 146.819 195.099 147.144 194.982 147.432C194.875 147.72 194.72 147.971 194.518 148.184C194.326 148.397 194.096 148.579 193.83 148.728C193.563 148.877 193.28 148.989 192.982 149.064V149.128C193.291 149.192 193.59 149.299 193.878 149.448C194.166 149.587 194.422 149.773 194.646 150.008C194.87 150.232 195.046 150.509 195.174 150.84C195.312 151.16 195.382 151.528 195.382 151.944C195.382 152.424 195.286 152.867 195.094 153.272C194.912 153.667 194.651 154.008 194.31 154.296C193.979 154.573 193.574 154.792 193.094 154.952C192.624 155.112 192.102 155.192 191.526 155.192C191.035 155.192 190.598 155.139 190.214 155.032C189.84 154.925 189.504 154.781 189.206 154.6C188.918 154.419 188.662 154.216 188.438 153.992C188.224 153.768 188.032 153.533 187.862 153.288L188.87 152.52C189.019 152.744 189.174 152.947 189.334 153.128C189.494 153.309 189.675 153.469 189.878 153.608C190.091 153.736 190.331 153.837 190.598 153.912C190.864 153.987 191.174 154.024 191.526 154.024C192.315 154.024 192.918 153.843 193.334 153.48C193.76 153.117 193.974 152.6 193.974 151.928V151.8C193.974 151.139 193.766 150.627 193.35 150.264C192.944 149.901 192.331 149.72 191.51 149.72H190.182V148.568H191.414ZM208.761 150.808V149.464H213.401V150.808H208.761ZM230.269 155.192C229.618 155.192 229.047 155.112 228.557 154.952C228.066 154.781 227.655 154.552 227.325 154.264C227.005 153.976 226.759 153.635 226.589 153.24C226.429 152.845 226.349 152.419 226.349 151.96C226.349 151.192 226.557 150.584 226.973 150.136C227.389 149.688 227.938 149.373 228.621 149.192V149.064C228.023 148.861 227.549 148.536 227.197 148.088C226.855 147.629 226.685 147.08 226.685 146.44C226.685 145.587 226.999 144.909 227.629 144.408C228.258 143.896 229.138 143.64 230.269 143.64C231.399 143.64 232.279 143.896 232.909 144.408C233.538 144.909 233.853 145.587 233.853 146.44C233.853 147.08 233.677 147.629 233.325 148.088C232.983 148.536 232.514 148.861 231.917 149.064V149.192C232.599 149.373 233.149 149.688 233.565 150.136C233.981 150.584 234.189 151.192 234.189 151.96C234.189 152.419 234.103 152.845 233.933 153.24C233.773 153.635 233.527 153.976 233.197 154.264C232.866 154.552 232.455 154.781 231.965 154.952C231.485 155.112 230.919 155.192 230.269 155.192ZM230.269 154.056C231.058 154.056 231.677 153.88 232.125 153.528C232.573 153.176 232.797 152.68 232.797 152.04V151.688C232.797 151.048 232.573 150.552 232.125 150.2C231.687 149.848 231.069 149.672 230.269 149.672C229.469 149.672 228.845 149.848 228.397 150.2C227.959 150.552 227.741 151.048 227.741 151.688V152.04C227.741 152.68 227.965 153.176 228.413 153.528C228.861 153.88 229.479 154.056 230.269 154.056ZM230.269 148.584C230.994 148.584 231.543 148.429 231.917 148.12C232.301 147.811 232.493 147.368 232.493 146.792V146.568C232.493 145.992 232.295 145.549 231.901 145.24C231.517 144.931 230.973 144.776 230.269 144.776C229.565 144.776 229.015 144.931 228.621 145.24C228.237 145.549 228.045 145.992 228.045 146.568V146.792C228.045 147.368 228.231 147.811 228.605 148.12C228.989 148.429 229.543 148.584 230.269 148.584ZM239.863 155.192C239.212 155.192 238.641 155.112 238.151 154.952C237.66 154.781 237.249 154.552 236.919 154.264C236.599 153.976 236.353 153.635 236.183 153.24C236.023 152.845 235.943 152.419 235.943 151.96C235.943 151.192 236.151 150.584 236.567 150.136C236.983 149.688 237.532 149.373 238.215 149.192V149.064C237.617 148.861 237.143 148.536 236.791 148.088C236.449 147.629 236.279 147.08 236.279 146.44C236.279 145.587 236.593 144.909 237.223 144.408C237.852 143.896 238.732 143.64 239.863 143.64C240.993 143.64 241.873 143.896 242.503 144.408C243.132 144.909 243.447 145.587 243.447 146.44C243.447 147.08 243.271 147.629 242.919 148.088C242.577 148.536 242.108 148.861 241.511 149.064V149.192C242.193 149.373 242.743 149.688 243.159 150.136C243.575 150.584 243.783 151.192 243.783 151.96C243.783 152.419 243.697 152.845 243.527 153.24C243.367 153.635 243.121 153.976 242.791 154.264C242.46 154.552 242.049 154.781 241.559 154.952C241.079 155.112 240.513 155.192 239.863 155.192ZM239.863 154.056C240.652 154.056 241.271 153.88 241.719 153.528C242.167 153.176 242.391 152.68 242.391 152.04V151.688C242.391 151.048 242.167 150.552 241.719 150.2C241.281 149.848 240.663 149.672 239.863 149.672C239.063 149.672 238.439 149.848 237.991 150.2C237.553 150.552 237.335 151.048 237.335 151.688V152.04C237.335 152.68 237.559 153.176 238.007 153.528C238.455 153.88 239.073 154.056 239.863 154.056ZM239.863 148.584C240.588 148.584 241.137 148.429 241.511 148.12C241.895 147.811 242.087 147.368 242.087 146.792V146.568C242.087 145.992 241.889 145.549 241.495 145.24C241.111 144.931 240.567 144.776 239.863 144.776C239.159 144.776 238.609 144.931 238.215 145.24C237.831 145.549 237.639 145.992 237.639 146.568V146.792C237.639 147.368 237.825 147.811 238.199 148.12C238.583 148.429 239.137 148.584 239.863 148.584ZM248.976 148.568C249.755 148.568 250.336 148.397 250.72 148.056C251.115 147.704 251.312 147.256 251.312 146.712V146.6C251.312 146.003 251.12 145.555 250.736 145.256C250.363 144.957 249.872 144.808 249.264 144.808C248.667 144.808 248.182 144.941 247.808 145.208C247.446 145.464 247.147 145.805 246.912 146.232L245.904 145.464C246.043 145.24 246.214 145.021 246.416 144.808C246.619 144.584 246.854 144.387 247.12 144.216C247.398 144.045 247.712 143.907 248.064 143.8C248.427 143.693 248.838 143.64 249.296 143.64C249.776 143.64 250.224 143.704 250.64 143.832C251.056 143.949 251.419 144.131 251.728 144.376C252.038 144.611 252.278 144.904 252.448 145.256C252.63 145.608 252.72 146.008 252.72 146.456C252.72 146.819 252.662 147.144 252.544 147.432C252.438 147.72 252.283 147.971 252.08 148.184C251.888 148.397 251.659 148.579 251.392 148.728C251.126 148.877 250.843 148.989 250.544 149.064V149.128C250.854 149.192 251.152 149.299 251.44 149.448C251.728 149.587 251.984 149.773 252.208 150.008C252.432 150.232 252.608 150.509 252.736 150.84C252.875 151.16 252.944 151.528 252.944 151.944C252.944 152.424 252.848 152.867 252.656 153.272C252.475 153.667 252.214 154.008 251.872 154.296C251.542 154.573 251.136 154.792 250.656 154.952C250.187 155.112 249.664 155.192 249.088 155.192C248.598 155.192 248.16 155.139 247.776 155.032C247.403 154.925 247.067 154.781 246.768 154.6C246.48 154.419 246.224 154.216 246 153.992C245.787 153.768 245.595 153.533 245.424 153.288L246.432 152.52C246.582 152.744 246.736 152.947 246.896 153.128C247.056 153.309 247.238 153.469 247.44 153.608C247.654 153.736 247.894 153.837 248.16 153.912C248.427 153.987 248.736 154.024 249.088 154.024C249.878 154.024 250.48 153.843 250.896 153.48C251.323 153.117 251.536 152.6 251.536 151.928V151.8C251.536 151.139 251.328 150.627 250.912 150.264C250.507 149.901 249.894 149.72 249.072 149.72H247.744V148.568H248.976ZM257.018 155L261.386 144.984H256.49V147.064H255.29V143.832H262.746V145.016L258.458 155H257.018Z" fill="white"/>
<path d="M26.608 121.544H26.496V131H25.28V119.832H27.184L30.992 129.192H31.104V119.832H32.32V131H30.416L26.608 121.544ZM38.5378 131.192C37.9404 131.192 37.4018 131.091 36.9218 130.888C36.4524 130.685 36.0471 130.397 35.7057 130.024C35.3751 129.64 35.1191 129.187 34.9378 128.664C34.7564 128.131 34.6658 127.539 34.6658 126.888C34.6658 126.227 34.7564 125.629 34.9378 125.096C35.1298 124.563 35.3911 124.109 35.7218 123.736C36.0524 123.352 36.4471 123.059 36.9058 122.856C37.3751 122.653 37.8924 122.552 38.4578 122.552C39.0124 122.552 39.5138 122.653 39.9618 122.856C40.4204 123.059 40.8098 123.341 41.1298 123.704C41.4498 124.056 41.6951 124.477 41.8658 124.968C42.0364 125.459 42.1218 125.997 42.1218 126.584V127.192H36.0098V127.576C36.0098 127.939 36.0684 128.275 36.1858 128.584C36.3031 128.893 36.4684 129.16 36.6818 129.384C36.9058 129.608 37.1724 129.784 37.4818 129.912C37.8018 130.029 38.1538 130.088 38.5378 130.088C39.0924 130.088 39.5724 129.96 39.9778 129.704C40.3831 129.448 40.6924 129.096 40.9058 128.648L41.8498 129.288C41.6044 129.843 41.1938 130.301 40.6178 130.664C40.0524 131.016 39.3591 131.192 38.5378 131.192ZM38.4578 123.608C38.1058 123.608 37.7804 123.672 37.4818 123.8C37.1831 123.928 36.9218 124.104 36.6978 124.328C36.4844 124.552 36.3138 124.819 36.1858 125.128C36.0684 125.427 36.0098 125.757 36.0098 126.12V126.232H40.7458V126.056C40.7458 125.693 40.6871 125.363 40.5698 125.064C40.4631 124.765 40.3084 124.509 40.1058 124.296C39.9138 124.072 39.6738 123.901 39.3858 123.784C39.1084 123.667 38.7991 123.608 38.4578 123.608ZM44.7555 119.16H46.0355V124.088H46.0995C46.1848 123.885 46.2915 123.693 46.4195 123.512C46.5475 123.32 46.7022 123.155 46.8835 123.016C47.0755 122.877 47.2995 122.765 47.5555 122.68C47.8115 122.595 48.1102 122.552 48.4515 122.552C49.3155 122.552 50.0088 122.829 50.5315 123.384C51.0542 123.928 51.3155 124.701 51.3155 125.704V131H50.0355V125.928C50.0355 125.171 49.8702 124.611 49.5395 124.248C49.2088 123.875 48.7235 123.688 48.0835 123.688C47.8275 123.688 47.5768 123.72 47.3315 123.784C47.0862 123.848 46.8675 123.944 46.6755 124.072C46.4835 124.2 46.3288 124.365 46.2115 124.568C46.0942 124.771 46.0355 125.005 46.0355 125.272V131H44.7555V119.16ZM60.7013 131C60.1999 131 59.8426 130.872 59.6293 130.616C59.4159 130.36 59.2826 130.04 59.2293 129.656H59.1493C58.9679 130.136 58.6746 130.515 58.2693 130.792C57.8746 131.059 57.3413 131.192 56.6693 131.192C55.8053 131.192 55.1173 130.968 54.6053 130.52C54.0933 130.072 53.8372 129.459 53.8372 128.68C53.8372 127.912 54.1146 127.32 54.6693 126.904C55.2346 126.488 56.1413 126.28 57.3893 126.28H59.1493V125.464C59.1493 124.856 58.9786 124.403 58.6373 124.104C58.2959 123.795 57.8106 123.64 57.1813 123.64C56.6266 123.64 56.1733 123.752 55.8213 123.976C55.4693 124.189 55.1866 124.483 54.9733 124.856L54.1093 124.216C54.2159 124.003 54.3599 123.795 54.5413 123.592C54.7226 123.389 54.9466 123.213 55.2133 123.064C55.4799 122.904 55.7839 122.781 56.1253 122.696C56.4666 122.6 56.8453 122.552 57.2613 122.552C58.2319 122.552 58.9999 122.797 59.5653 123.288C60.1413 123.779 60.4293 124.461 60.4293 125.336V129.88H61.5813V131H60.7013ZM56.8932 130.12C57.2239 130.12 57.5226 130.083 57.7893 130.008C58.0666 129.923 58.3066 129.816 58.5093 129.688C58.7119 129.549 58.8666 129.389 58.9733 129.208C59.0906 129.016 59.1493 128.813 59.1493 128.6V127.24H57.3893C56.6213 127.24 56.0613 127.347 55.7093 127.56C55.3573 127.773 55.1813 128.083 55.1813 128.488V128.824C55.1813 129.251 55.3306 129.576 55.6293 129.8C55.9386 130.013 56.3599 130.12 56.8932 130.12ZM76.2728 125.528L74.6728 127.416V131H73.3288V119.832H74.6728V125.656H74.7208L76.1927 123.8L79.4888 119.832H81.1048L77.1848 124.536L81.2168 131H79.6488L76.2728 125.528ZM89.4825 131C88.9812 131 88.6238 130.872 88.4105 130.616C88.1972 130.36 88.0638 130.04 88.0105 129.656H87.9305C87.7492 130.136 87.4558 130.515 87.0505 130.792C86.6558 131.059 86.1225 131.192 85.4505 131.192C84.5865 131.192 83.8985 130.968 83.3865 130.52C82.8745 130.072 82.6185 129.459 82.6185 128.68C82.6185 127.912 82.8958 127.32 83.4505 126.904C84.0158 126.488 84.9225 126.28 86.1705 126.28H87.9305V125.464C87.9305 124.856 87.7598 124.403 87.4185 124.104C87.0772 123.795 86.5918 123.64 85.9625 123.64C85.4078 123.64 84.9545 123.752 84.6025 123.976C84.2505 124.189 83.9678 124.483 83.7545 124.856L82.8905 124.216C82.9972 124.003 83.1412 123.795 83.3225 123.592C83.5038 123.389 83.7278 123.213 83.9945 123.064C84.2612 122.904 84.5652 122.781 84.9065 122.696C85.2478 122.6 85.6265 122.552 86.0425 122.552C87.0132 122.552 87.7812 122.797 88.3465 123.288C88.9225 123.779 89.2105 124.461 89.2105 125.336V129.88H90.3625V131H89.4825ZM85.6745 130.12C86.0052 130.12 86.3038 130.083 86.5705 130.008C86.8478 129.923 87.0878 129.816 87.2905 129.688C87.4932 129.549 87.6478 129.389 87.7545 129.208C87.8718 129.016 87.9305 128.813 87.9305 128.6V127.24H86.1705C85.4025 127.24 84.8425 127.347 84.4905 127.56C84.1385 127.773 83.9625 128.083 83.9625 128.488V128.824C83.9625 129.251 84.1118 129.576 84.4105 129.8C84.7198 130.013 85.1412 130.12 85.6745 130.12ZM92.8363 119.16H94.1163V126.632H94.1803L95.6203 125.272L98.3723 122.744H99.9403L96.5163 125.976L100.34 131H98.7563L95.5403 126.712L94.1163 128.008V131H92.8363V119.16ZM102.43 119.16H103.71V126.632H103.774L105.214 125.272L107.966 122.744H109.534L106.11 125.976L109.934 131H108.35L105.134 126.712L103.71 128.008V131H102.43V119.16ZM118.264 131C117.762 131 117.405 130.872 117.192 130.616C116.978 130.36 116.845 130.04 116.792 129.656H116.712C116.53 130.136 116.237 130.515 115.832 130.792C115.437 131.059 114.904 131.192 114.232 131.192C113.368 131.192 112.68 130.968 112.168 130.52C111.656 130.072 111.4 129.459 111.4 128.68C111.4 127.912 111.677 127.32 112.232 126.904C112.797 126.488 113.704 126.28 114.952 126.28H116.712V125.464C116.712 124.856 116.541 124.403 116.2 124.104C115.858 123.795 115.373 123.64 114.744 123.64C114.189 123.64 113.736 123.752 113.384 123.976C113.032 124.189 112.749 124.483 112.536 124.856L111.672 124.216C111.778 124.003 111.922 123.795 112.104 123.592C112.285 123.389 112.509 123.213 112.776 123.064C113.042 122.904 113.346 122.781 113.688 122.696C114.029 122.6 114.408 122.552 114.824 122.552C115.794 122.552 116.562 122.797 117.128 123.288C117.704 123.779 117.992 124.461 117.992 125.336V129.88H119.144V131H118.264ZM114.456 130.12C114.786 130.12 115.085 130.083 115.352 130.008C115.629 129.923 115.869 129.816 116.072 129.688C116.274 129.549 116.429 129.389 116.536 129.208C116.653 129.016 116.712 128.813 116.712 128.6V127.24H114.952C114.184 127.24 113.624 127.347 113.272 127.56C112.92 127.773 112.744 128.083 112.744 128.488V128.824C112.744 129.251 112.893 129.576 113.192 129.8C113.501 130.013 113.922 130.12 114.456 130.12ZM121.17 129.912H123.586V123.832H121.17V122.744H124.866V124.824H124.946C125.116 124.173 125.436 123.667 125.906 123.304C126.386 122.931 126.994 122.744 127.73 122.744H128.882V124.024H127.33C126.594 124.024 125.996 124.237 125.538 124.664C125.09 125.091 124.866 125.651 124.866 126.344V129.912H128.066V131H121.17V129.912Z" fill="white"/>
<path opacity="0.9" d="M30.144 46.24C29.3653 46.24 28.656 46.112 28.016 45.856C27.376 45.6 26.8267 45.2267 26.368 44.736C25.9093 44.2453 25.552 43.6427 25.296 42.928C25.0507 42.2027 24.928 41.376 24.928 40.448C24.928 39.52 25.0667 38.6987 25.344 37.984C25.632 37.2587 26.016 36.6507 26.496 36.16C26.976 35.6693 27.536 35.296 28.176 35.04C28.816 34.784 29.4987 34.656 30.224 34.656C30.6827 34.656 31.0933 34.688 31.456 34.752C31.8293 34.816 32.1493 34.8907 32.416 34.976C32.6933 35.0613 32.9173 35.1467 33.088 35.232C33.2587 35.3173 33.376 35.3813 33.44 35.424L32.992 36.704C32.896 36.64 32.7573 36.5707 32.576 36.496C32.3947 36.4213 32.1867 36.3467 31.952 36.272C31.728 36.1973 31.4773 36.1387 31.2 36.096C30.9333 36.0427 30.6613 36.016 30.384 36.016C29.7973 36.016 29.2693 36.1173 28.8 36.32C28.3307 36.5227 27.9307 36.816 27.6 37.2C27.2693 37.584 27.0133 38.0533 26.832 38.608C26.6613 39.152 26.576 39.7653 26.576 40.448C26.576 41.1093 26.6507 41.712 26.8 42.256C26.96 42.8 27.1947 43.2693 27.504 43.664C27.8133 44.048 28.1973 44.3467 28.656 44.56C29.1253 44.7733 29.6693 44.88 30.288 44.88C31.0027 44.88 31.5947 44.8053 32.064 44.656C32.5333 44.5067 32.8853 44.3733 33.12 44.256L33.52 45.536C33.4453 45.5893 33.312 45.6587 33.12 45.744C32.928 45.8187 32.688 45.8933 32.4 45.968C32.112 46.0427 31.776 46.1067 31.392 46.16C31.008 46.2133 30.592 46.24 30.144 46.24ZM38.2739 37.504C38.4019 37.504 38.5459 37.5147 38.7059 37.536C38.8765 37.5467 39.0419 37.568 39.2019 37.6C39.3619 37.6213 39.5059 37.648 39.6339 37.68C39.7725 37.7013 39.8739 37.7227 39.9379 37.744L39.6819 39.04C39.5645 38.9973 39.3672 38.9493 39.0899 38.896C38.8232 38.832 38.4765 38.8 38.0499 38.8C37.7725 38.8 37.4952 38.832 37.2179 38.896C36.9512 38.9493 36.7752 38.9867 36.6899 39.008V46H35.2019V38.032C35.5539 37.904 35.9912 37.7867 36.5139 37.68C37.0365 37.5627 37.6232 37.504 38.2739 37.504ZM40.9098 41.856C40.9098 41.12 41.0164 40.48 41.2298 39.936C41.4431 39.3813 41.7258 38.9227 42.0778 38.56C42.4298 38.1973 42.8351 37.9253 43.2938 37.744C43.7524 37.5627 44.2218 37.472 44.7018 37.472C45.8218 37.472 46.6804 37.824 47.2778 38.528C47.8751 39.2213 48.1737 40.2827 48.1737 41.712C48.1737 41.776 48.1737 41.8613 48.1737 41.968C48.1737 42.064 48.1684 42.1547 48.1578 42.24H42.4618C42.5258 43.104 42.7764 43.76 43.2138 44.208C43.6511 44.656 44.3338 44.88 45.2618 44.88C45.7844 44.88 46.2218 44.8373 46.5738 44.752C46.9364 44.656 47.2084 44.5653 47.3898 44.48L47.5978 45.728C47.4164 45.824 47.0964 45.9253 46.6378 46.032C46.1898 46.1387 45.6778 46.192 45.1018 46.192C44.3764 46.192 43.7471 46.0853 43.2138 45.872C42.6911 45.648 42.2591 45.344 41.9178 44.96C41.5764 44.576 41.3204 44.1227 41.1497 43.6C40.9898 43.0667 40.9098 42.4853 40.9098 41.856ZM46.6218 41.04C46.6324 40.368 46.4618 39.8187 46.1098 39.392C45.7684 38.9547 45.2938 38.736 44.6858 38.736C44.3444 38.736 44.0404 38.8053 43.7738 38.944C43.5178 39.072 43.2991 39.2427 43.1178 39.456C42.9364 39.6693 42.7924 39.9147 42.6858 40.192C42.5898 40.4693 42.5258 40.752 42.4938 41.04H46.6218ZM55.6873 39.44C55.5059 39.2907 55.2446 39.1467 54.9033 39.008C54.5619 38.8693 54.1886 38.8 53.7833 38.8C53.3566 38.8 52.9886 38.88 52.6793 39.04C52.3806 39.1893 52.1353 39.4027 51.9433 39.68C51.7513 39.9467 51.6126 40.2667 51.5273 40.64C51.4419 41.0133 51.3993 41.4133 51.3993 41.84C51.3993 42.8107 51.6393 43.5627 52.1193 44.096C52.5993 44.6187 53.2393 44.88 54.0393 44.88C54.4446 44.88 54.7806 44.864 55.0473 44.832C55.3246 44.7893 55.5379 44.7467 55.6873 44.704V39.44ZM55.6873 33.84L57.1753 33.584V45.76C56.8339 45.856 56.3966 45.952 55.8633 46.048C55.3299 46.144 54.7166 46.192 54.0233 46.192C53.3833 46.192 52.8073 46.0907 52.2953 45.888C51.7833 45.6853 51.3459 45.3973 50.9833 45.024C50.6206 44.6507 50.3379 44.1973 50.1353 43.664C49.9433 43.12 49.8473 42.512 49.8473 41.84C49.8473 41.2 49.9273 40.6133 50.0872 40.08C50.2579 39.5467 50.5033 39.088 50.8233 38.704C51.1433 38.32 51.5326 38.0213 51.9913 37.808C52.4606 37.5947 52.9939 37.488 53.5913 37.488C54.0713 37.488 54.4926 37.552 54.8553 37.68C55.2286 37.808 55.5059 37.9307 55.6873 38.048V33.84ZM61.2211 46H59.7331V37.68H61.2211V46ZM60.4691 36.176C60.2025 36.176 59.9731 36.0907 59.7811 35.92C59.5998 35.7387 59.5091 35.4987 59.5091 35.2C59.5091 34.9013 59.5998 34.6667 59.7811 34.496C59.9731 34.3147 60.2025 34.224 60.4691 34.224C60.7358 34.224 60.9598 34.3147 61.1411 34.496C61.3331 34.6667 61.4291 34.9013 61.4291 35.2C61.4291 35.4987 61.3331 35.7387 61.1411 35.92C60.9598 36.0907 60.7358 36.176 60.4691 36.176ZM65.172 37.68H68.324V38.928H65.172V42.768C65.172 43.184 65.204 43.5307 65.268 43.808C65.332 44.0747 65.428 44.288 65.556 44.448C65.684 44.5973 65.844 44.704 66.036 44.768C66.228 44.832 66.452 44.864 66.708 44.864C67.156 44.864 67.5133 44.816 67.78 44.72C68.0573 44.6133 68.2493 44.5387 68.356 44.496L68.644 45.728C68.4947 45.8027 68.2333 45.8933 67.86 46C67.4867 46.1173 67.06 46.176 66.58 46.176C66.0147 46.176 65.5453 46.1067 65.172 45.968C64.8093 45.8187 64.516 45.6 64.292 45.312C64.068 45.024 63.908 44.672 63.812 44.256C63.7267 43.8293 63.684 43.3387 63.684 42.784V35.36L65.172 35.104V37.68Z" fill="white"/>
<g clip-path="url(#clip0_401_81)">
<path d="M286.273 38.4999C286.273 39.55 285.961 40.5765 285.378 41.4497C284.795 42.3229 283.966 43.0035 282.996 43.4056C282.026 43.8077 280.958 43.9131 279.928 43.7087C278.898 43.5042 277.952 42.9989 277.209 42.2568C276.466 41.5147 275.96 40.5689 275.754 39.5392C275.549 38.5094 275.653 37.4418 276.055 36.4714C276.456 35.501 277.135 34.6712 278.008 34.0871C278.881 33.5029 279.907 33.1906 280.957 33.1896H280.962C283.897 33.1896 286.273 35.5678 286.273 38.4999ZM272.623 33.2473C269.672 33.2473 267.307 35.5678 267.307 38.4711C267.307 41.4058 269.612 43.6791 272.575 43.6791C273.413 43.6791 274.132 43.5137 275.017 43.0989V40.8073C274.24 41.5869 273.549 41.8993 272.667 41.8993C270.706 41.8993 269.315 40.4766 269.315 38.4553C269.315 36.5391 270.751 35.0271 272.578 35.0271C273.507 35.0271 274.211 35.3578 275.019 36.1506V33.859C274.284 33.4569 273.46 33.2465 272.623 33.2473ZM263.824 37.3029C262.655 36.8698 262.312 36.5863 262.312 36.0456C262.312 35.4182 262.923 34.9378 263.763 34.9378C264.346 34.9378 264.826 35.1767 265.333 35.7463L266.351 34.4128C265.545 33.6938 264.5 33.2991 263.419 33.3051C261.653 33.3051 260.306 34.5309 260.306 36.1637C260.306 37.5392 260.933 38.2427 262.763 38.9016C263.527 39.1719 263.913 39.3504 264.11 39.4712C264.288 39.578 264.436 39.7296 264.538 39.911C264.641 40.0924 264.694 40.2973 264.692 40.5054C264.692 41.3139 264.049 41.9124 263.18 41.9124C262.251 41.9124 261.503 41.4478 261.057 40.5816L259.799 41.7917C260.697 43.1094 261.773 43.6922 263.257 43.6922C265.28 43.6922 266.698 42.3456 266.698 40.4136C266.693 38.8307 266.036 38.1141 263.824 37.3029ZM311 34.0374C311.001 34.2389 310.922 34.4324 310.78 34.5756C310.638 34.7188 310.446 34.7999 310.244 34.8013C310.144 34.8017 310.044 34.7822 309.951 34.7439C309.858 34.7056 309.774 34.6494 309.703 34.5784C309.632 34.5074 309.576 34.423 309.538 34.3302C309.499 34.2373 309.48 34.1379 309.48 34.0374V34.0296C309.475 33.926 309.49 33.8224 309.526 33.7251C309.562 33.6278 309.618 33.5389 309.689 33.4638C309.761 33.3887 309.847 33.3291 309.942 33.2885C310.038 33.2479 310.141 33.2272 310.244 33.2278C310.348 33.2283 310.451 33.25 310.546 33.2916C310.641 33.3332 310.726 33.3937 310.797 33.4696C310.868 33.5454 310.922 33.6349 310.957 33.7325C310.992 33.8302 311.007 33.9339 311 34.0374ZM310.845 34.0401C310.847 33.9591 310.832 33.8786 310.802 33.8032C310.773 33.7278 310.728 33.659 310.672 33.6008C310.616 33.5425 310.548 33.4959 310.474 33.4637C310.4 33.4314 310.32 33.4141 310.239 33.4127C310.157 33.4134 310.077 33.4302 310.002 33.4622C309.928 33.4942 309.86 33.5407 309.803 33.5991C309.747 33.6575 309.702 33.7265 309.672 33.8022C309.643 33.8779 309.628 33.9588 309.63 34.0401C309.63 34.3866 309.903 34.6674 310.239 34.6674C310.32 34.6661 310.4 34.6488 310.474 34.6165C310.548 34.5842 310.616 34.5376 310.672 34.4794C310.728 34.4211 310.773 34.3523 310.802 34.277C310.832 34.2016 310.847 34.1211 310.845 34.0401ZM257.114 43.4533H259.062V33.4704H257.114V43.4533ZM290.457 40.1773L287.795 33.4731H285.669L289.906 43.7106H290.953L295.266 33.4731H293.155L290.457 40.1773ZM296.143 43.4533H301.666V41.7628H298.09V39.0669H301.534V37.3764H298.09V35.1609H301.666V33.4704H296.143V43.4533ZM310.341 34.1162L310.63 34.4785H310.375L310.129 34.1372V34.4785H309.919V33.6017H310.199C310.412 33.6017 310.53 33.6962 310.53 33.8721C310.533 33.9928 310.465 34.0821 310.341 34.1162ZM310.325 33.8747C310.325 33.7986 310.27 33.7618 310.168 33.7618H310.131V33.9902H310.168C310.27 33.9902 310.325 33.9534 310.325 33.8747ZM307.102 39.2481L310.244 43.4533H307.85L305.154 39.4423H304.9V43.4533H302.954V33.4704H305.842C308.086 33.4704 309.375 34.5493 309.375 36.4183C309.375 37.9487 308.567 38.9514 307.102 39.2481ZM307.372 36.5233C307.372 35.5521 306.713 35.0454 305.501 35.0454H304.902V38.0694H305.472C306.713 38.0668 307.372 37.5261 307.372 36.5233ZM256.219 38.4711C256.215 39.2034 256.051 39.926 255.738 40.5882C255.425 41.2503 254.971 41.8358 254.408 42.3036C253.45 43.0989 252.358 43.4559 250.846 43.4559H248.003V33.4731H250.861C254.017 33.4731 256.219 35.5232 256.219 38.4711ZM254.213 38.4553C254.213 37.4998 253.809 36.5706 253.135 35.9694C252.491 35.3867 251.728 35.1609 250.47 35.1609H249.948V41.7628H250.47C251.728 41.7628 252.523 41.5213 253.135 40.9701C253.807 40.3716 254.213 39.4134 254.213 38.4553Z" fill="white"/>
</g>
<defs>
<filter id="filter0_b_401_81" x="-80" y="-80" width="495" height="345" filterUnits="userSpaceOnUse" color-interpolation-filters="sRGB">
<feFlood flood-opacity="0" result="BackgroundImageFix"/>
<feGaussianBlur in="BackgroundImage" stdDeviation="40"/>
<feComposite in2="SourceAlpha" operator="in" result="effect1_backgroundBlur_401_81"/>
<feBlend mode="normal" in="SourceGraphic" in2="effect1_backgroundBlur_401_81" result="shape"/>
</filter>
<linearGradient id="paint0_linear_401_81" x1="-86.5" y1="-37" x2="580.5" y2="314.5" gradientUnits="userSpaceOnUse">
<stop stop-color="#FF94A1"/>
<stop offset="1" stop-color="#FF2C6B"/>
</linearGradient>
<clipPath id="clip0_401_81">
<rect width="63" height="63" fill="white" transform="translate(248 7)"/>
</clipPath>
</defs>
</svg>
