<svg width="335" height="185" viewBox="0 0 335 185" fill="none" xmlns="http://www.w3.org/2000/svg">
<rect width="335" height="185" rx="20" fill="url(#paint0_linear_410_2854)"/>
<g filter="url(#filter0_b_410_2854)">
<rect width="335" height="185" rx="20" fill="white" fill-opacity="0.03"/>
</g>
<path fill-rule="evenodd" clip-rule="evenodd" d="M238.09 0H125.23L16.6774 184.725C17.758 184.906 18.868 185 20 185H315C326.046 185 335 176.046 335 165V79.5576L238.09 0Z" fill="white" fill-opacity="0.08"/>
<path fill-rule="evenodd" clip-rule="evenodd" d="M55.6321 0H20C8.95431 0 0 8.9543 0 20V165C0 176.046 8.95431 185 20 185H280.983L55.6321 0Z" fill="white" fill-opacity="0.08"/>
<g clip-path="url(#clip0_410_2854)">
<path d="M276.273 31.4999C276.273 32.55 275.961 33.5765 275.378 34.4497C274.795 35.3229 273.966 36.0035 272.996 36.4056C272.026 36.8077 270.958 36.9131 269.928 36.7087C268.898 36.5042 267.952 35.9989 267.209 35.2568C266.466 34.5147 265.96 33.5689 265.754 32.5392C265.549 31.5094 265.653 30.4418 266.055 29.4714C266.456 28.501 267.135 27.6712 268.008 27.0871C268.881 26.5029 269.907 26.1906 270.957 26.1896H270.962C273.897 26.1896 276.273 28.5678 276.273 31.4999ZM262.623 26.2473C259.672 26.2473 257.307 28.5678 257.307 31.4711C257.307 34.4058 259.612 36.6791 262.575 36.6791C263.413 36.6791 264.132 36.5137 265.017 36.0989V33.8073C264.24 34.5869 263.549 34.8993 262.667 34.8993C260.706 34.8993 259.315 33.4766 259.315 31.4553C259.315 29.5391 260.751 28.0271 262.578 28.0271C263.507 28.0271 264.211 28.3578 265.019 29.1506V26.859C264.284 26.4569 263.46 26.2465 262.623 26.2473V26.2473ZM253.824 30.3029C252.655 29.8698 252.312 29.5863 252.312 29.0456C252.312 28.4182 252.923 27.9378 253.763 27.9378C254.346 27.9378 254.826 28.1767 255.333 28.7463L256.351 27.4128C255.545 26.6938 254.5 26.2991 253.419 26.3051C251.653 26.3051 250.306 27.5309 250.306 29.1637C250.306 30.5392 250.933 31.2427 252.763 31.9016C253.527 32.1719 253.913 32.3504 254.11 32.4712C254.288 32.578 254.436 32.7296 254.538 32.911C254.641 33.0924 254.694 33.2973 254.692 33.5054C254.692 34.3139 254.049 34.9124 253.18 34.9124C252.251 34.9124 251.503 34.4478 251.057 33.5816L249.799 34.7917C250.697 36.1094 251.773 36.6922 253.257 36.6922C255.28 36.6922 256.698 35.3456 256.698 33.4136C256.693 31.8307 256.036 31.1141 253.824 30.3029V30.3029ZM301 27.0374C301.001 27.2389 300.922 27.4324 300.78 27.5756C300.638 27.7188 300.446 27.7999 300.244 27.8013C300.144 27.8017 300.044 27.7822 299.951 27.7439C299.858 27.7056 299.774 27.6494 299.703 27.5784C299.632 27.5074 299.576 27.423 299.538 27.3302C299.499 27.2373 299.48 27.1379 299.48 27.0374V27.0296C299.475 26.926 299.49 26.8224 299.526 26.7251C299.562 26.6278 299.618 26.5389 299.689 26.4638C299.761 26.3887 299.847 26.3291 299.942 26.2885C300.038 26.2479 300.141 26.2272 300.244 26.2278C300.348 26.2283 300.451 26.25 300.546 26.2916C300.641 26.3332 300.726 26.3937 300.797 26.4696C300.868 26.5454 300.922 26.6349 300.957 26.7325C300.992 26.8302 301.007 26.9339 301 27.0374V27.0374ZM300.845 27.0401C300.847 26.9591 300.832 26.8786 300.802 26.8032C300.773 26.7278 300.728 26.659 300.672 26.6008C300.616 26.5425 300.548 26.4959 300.474 26.4637C300.4 26.4314 300.32 26.4141 300.239 26.4127C300.157 26.4134 300.077 26.4302 300.002 26.4622C299.928 26.4942 299.86 26.5407 299.803 26.5991C299.747 26.6575 299.702 26.7265 299.672 26.8022C299.643 26.8779 299.628 26.9588 299.63 27.0401C299.63 27.3866 299.903 27.6674 300.239 27.6674C300.32 27.6661 300.4 27.6488 300.474 27.6165C300.548 27.5842 300.616 27.5376 300.672 27.4794C300.728 27.4211 300.773 27.3523 300.802 27.277C300.832 27.2016 300.847 27.1211 300.845 27.0401V27.0401ZM247.114 36.4533H249.062V26.4704H247.114V36.4533V36.4533ZM280.457 33.1773L277.795 26.4731H275.669L279.906 36.7106H280.953L285.266 26.4731H283.155L280.457 33.1773V33.1773ZM286.143 36.4533H291.666V34.7628H288.09V32.0669H291.534V30.3764H288.09V28.1609H291.666V26.4704H286.143V36.4533ZM300.341 27.1162L300.63 27.4785H300.375L300.129 27.1372V27.4785H299.919V26.6017H300.199C300.412 26.6017 300.53 26.6962 300.53 26.8721C300.533 26.9928 300.465 27.0821 300.341 27.1162ZM300.325 26.8747C300.325 26.7986 300.27 26.7618 300.168 26.7618H300.131V26.9902H300.168C300.27 26.9902 300.325 26.9534 300.325 26.8747ZM297.102 32.2481L300.244 36.4533H297.85L295.154 32.4423H294.9V36.4533H292.954V26.4704H295.842C298.086 26.4704 299.375 27.5493 299.375 29.4183C299.375 30.9487 298.567 31.9514 297.102 32.2481V32.2481ZM297.372 29.5233C297.372 28.5521 296.713 28.0454 295.501 28.0454H294.902V31.0694H295.472C296.713 31.0668 297.372 30.5261 297.372 29.5233V29.5233ZM246.219 31.4711C246.215 32.2034 246.051 32.926 245.738 33.5882C245.425 34.2503 244.971 34.8358 244.408 35.3036C243.45 36.0989 242.358 36.4559 240.846 36.4559H238.003V26.4731H240.861C244.017 26.4731 246.219 28.5232 246.219 31.4711ZM244.213 31.4553C244.213 30.4998 243.809 29.5706 243.135 28.9694C242.491 28.3867 241.728 28.1609 240.47 28.1609H239.948V34.7628H240.47C241.728 34.7628 242.523 34.5213 243.135 33.9701C243.807 33.3716 244.213 32.4134 244.213 31.4553V31.4553Z" fill="white"/>
</g>
<defs>
<filter id="filter0_b_410_2854" x="-80" y="-80" width="495" height="345" filterUnits="userSpaceOnUse" color-interpolation-filters="sRGB">
<feFlood flood-opacity="0" result="BackgroundImageFix"/>
<feGaussianBlur in="BackgroundImage" stdDeviation="40"/>
<feComposite in2="SourceAlpha" operator="in" result="effect1_backgroundBlur_410_2854"/>
<feBlend mode="normal" in="SourceGraphic" in2="effect1_backgroundBlur_410_2854" result="shape"/>
</filter>
<linearGradient id="paint0_linear_410_2854" x1="-86.5" y1="-37" x2="580.5" y2="314.5" gradientUnits="userSpaceOnUse">
<stop stop-color="#FF94A1"/>
<stop offset="1" stop-color="#FF2C6B"/>
</linearGradient>
<clipPath id="clip0_410_2854">
<rect width="63" height="63" fill="white" transform="translate(238)"/>
</clipPath>
</defs>
</svg>
