<svg width="335" height="185" viewBox="0 0 335 185" fill="none" xmlns="http://www.w3.org/2000/svg">
<rect width="335" height="185" rx="20" fill="url(#paint0_linear_401_96)"/>
<g filter="url(#filter0_b_401_96)">
<rect width="335" height="185" rx="20" fill="white" fill-opacity="0.03"/>
</g>
<path fill-rule="evenodd" clip-rule="evenodd" d="M124.051 0H20C8.95431 0 0 8.9543 0 20V165C0 176.046 8.95431 185 20 185H315C323.542 185 330.833 179.645 333.7 172.109L124.051 0Z" fill="white" fill-opacity="0.08"/>
<path fill-rule="evenodd" clip-rule="evenodd" d="M81.6321 0H20C8.95431 0 0 8.9543 0 20V165C0 176.046 8.95431 185 20 185H306.983L81.6321 0Z" fill="white" fill-opacity="0.08"/>
<path fill-rule="evenodd" clip-rule="evenodd" d="M35.6321 0H20C8.95431 0 0 8.9543 0 20V165C0 176.046 8.95431 185 20 185H260.983L35.6321 0Z" fill="white" fill-opacity="0.08"/>
<path d="M28.816 155.192C28.2293 155.192 27.7013 155.096 27.232 154.904C26.7627 154.701 26.3627 154.419 26.032 154.056C25.712 153.683 25.4613 153.229 25.28 152.696C25.1093 152.163 25.024 151.565 25.024 150.904C25.024 150.072 25.1467 149.293 25.392 148.568C25.648 147.832 25.968 147.165 26.352 146.568C26.7467 145.96 27.184 145.427 27.664 144.968C28.144 144.499 28.6133 144.12 29.072 143.832H30.8C30.192 144.269 29.648 144.696 29.168 145.112C28.6987 145.528 28.2827 145.965 27.92 146.424C27.5573 146.872 27.2533 147.357 27.008 147.88C26.7627 148.392 26.56 148.973 26.4 149.624L26.48 149.656C26.7467 149.197 27.0987 148.819 27.536 148.52C27.9733 148.211 28.5387 148.056 29.232 148.056C29.7227 148.056 30.1707 148.136 30.576 148.296C30.9813 148.456 31.3333 148.685 31.632 148.984C31.9307 149.283 32.16 149.645 32.32 150.072C32.4907 150.499 32.576 150.973 32.576 151.496C32.576 152.04 32.4853 152.541 32.304 153C32.1227 153.448 31.8667 153.837 31.536 154.168C31.216 154.488 30.8213 154.739 30.352 154.92C29.8933 155.101 29.3813 155.192 28.816 155.192ZM28.8 154.056C29.568 154.056 30.16 153.848 30.576 153.432C31.0027 153.016 31.216 152.429 31.216 151.672V151.544C31.216 150.787 31.0027 150.2 30.576 149.784C30.16 149.368 29.568 149.16 28.8 149.16C28.032 149.16 27.4347 149.368 27.008 149.784C26.592 150.2 26.384 150.787 26.384 151.544V151.672C26.384 152.429 26.592 153.016 27.008 153.432C27.4347 153.848 28.032 154.056 28.8 154.056ZM38.3938 155.192C37.7111 155.192 37.1244 155.064 36.6338 154.808C36.1431 154.541 35.7378 154.163 35.4178 153.672C35.0978 153.181 34.8631 152.579 34.7138 151.864C34.5644 151.149 34.4898 150.333 34.4898 149.416C34.4898 148.509 34.5644 147.699 34.7138 146.984C34.8631 146.259 35.0978 145.651 35.4178 145.16C35.7378 144.669 36.1431 144.296 36.6338 144.04C37.1244 143.773 37.7111 143.64 38.3938 143.64C39.0764 143.64 39.6631 143.773 40.1538 144.04C40.6444 144.296 41.0498 144.669 41.3698 145.16C41.6898 145.651 41.9244 146.259 42.0738 146.984C42.2231 147.699 42.2978 148.509 42.2978 149.416C42.2978 150.333 42.2231 151.149 42.0738 151.864C41.9244 152.579 41.6898 153.181 41.3698 153.672C41.0498 154.163 40.6444 154.541 40.1538 154.808C39.6631 155.064 39.0764 155.192 38.3938 155.192ZM38.3938 154.024C38.8418 154.024 39.2258 153.939 39.5458 153.768C39.8658 153.587 40.1218 153.336 40.3138 153.016C40.5164 152.696 40.6658 152.312 40.7618 151.864C40.8578 151.405 40.9058 150.893 40.9058 150.328V148.504C40.9058 147.949 40.8578 147.443 40.7618 146.984C40.6658 146.525 40.5164 146.136 40.3138 145.816C40.1218 145.496 39.8658 145.251 39.5458 145.08C39.2258 144.899 38.8418 144.808 38.3938 144.808C37.9458 144.808 37.5618 144.899 37.2418 145.08C36.9218 145.251 36.6604 145.496 36.4578 145.816C36.2658 146.136 36.1218 146.525 36.0258 146.984C35.9298 147.443 35.8818 147.949 35.8818 148.504V150.328C35.8818 150.893 35.9298 151.405 36.0258 151.864C36.1218 152.312 36.2658 152.696 36.4578 153.016C36.6604 153.336 36.9218 153.587 37.2418 153.768C37.5618 153.939 37.9458 154.024 38.3938 154.024ZM38.3938 150.36C38.0204 150.36 37.7591 150.285 37.6098 150.136C37.4711 149.987 37.4018 149.805 37.4018 149.592V149.24C37.4018 149.027 37.4711 148.845 37.6098 148.696C37.7591 148.547 38.0204 148.472 38.3938 148.472C38.7671 148.472 39.0231 148.547 39.1618 148.696C39.3111 148.845 39.3858 149.027 39.3858 149.24V149.592C39.3858 149.805 39.3111 149.987 39.1618 150.136C39.0231 150.285 38.7671 150.36 38.3938 150.36ZM44.5475 155V153.832H47.7475V144.824H47.6355L44.8195 147.448L44.0355 146.6L46.9955 143.832H49.0915V153.832H52.0355V155H44.5475ZM54.1413 155V153.832H57.3413V144.824H57.2293L54.4133 147.448L53.6293 146.6L56.5893 143.832H58.6853V153.832H61.6293V155H54.1413ZM74.4488 150.808V149.464H79.0888V150.808H74.4488ZM95.9723 155.192C95.3856 155.192 94.8576 155.096 94.3883 154.904C93.9189 154.701 93.5189 154.419 93.1883 154.056C92.8683 153.683 92.6176 153.229 92.4363 152.696C92.2656 152.163 92.1803 151.565 92.1803 150.904C92.1803 150.072 92.3029 149.293 92.5483 148.568C92.8043 147.832 93.1243 147.165 93.5082 146.568C93.9029 145.96 94.3403 145.427 94.8203 144.968C95.3003 144.499 95.7696 144.12 96.2283 143.832H97.9563C97.3483 144.269 96.8043 144.696 96.3243 145.112C95.8549 145.528 95.4389 145.965 95.0763 146.424C94.7136 146.872 94.4096 147.357 94.1643 147.88C93.9189 148.392 93.7163 148.973 93.5563 149.624L93.6363 149.656C93.9029 149.197 94.2549 148.819 94.6923 148.52C95.1296 148.211 95.6949 148.056 96.3883 148.056C96.8789 148.056 97.3269 148.136 97.7323 148.296C98.1376 148.456 98.4896 148.685 98.7883 148.984C99.0869 149.283 99.3163 149.645 99.4763 150.072C99.6469 150.499 99.7323 150.973 99.7323 151.496C99.7323 152.04 99.6416 152.541 99.4603 153C99.2789 153.448 99.0229 153.837 98.6923 154.168C98.3723 154.488 97.9776 154.739 97.5083 154.92C97.0496 155.101 96.5376 155.192 95.9723 155.192ZM95.9563 154.056C96.7243 154.056 97.3163 153.848 97.7323 153.432C98.1589 153.016 98.3723 152.429 98.3723 151.672V151.544C98.3723 150.787 98.1589 150.2 97.7323 149.784C97.3163 149.368 96.7243 149.16 95.9563 149.16C95.1883 149.16 94.5909 149.368 94.1643 149.784C93.7483 150.2 93.5403 150.787 93.5403 151.544V151.672C93.5403 152.429 93.7483 153.016 94.1643 153.432C94.5909 153.848 95.1883 154.056 95.9563 154.056ZM102.11 155V153.832H105.31V144.824H105.198L102.382 147.448L101.598 146.6L104.558 143.832H106.654V153.832H109.598V155H102.11ZM113.112 155L117.48 144.984H112.584V147.064H111.384V143.832H118.84V145.016L114.552 155H113.112ZM127.954 145H122.962L122.642 149.272H122.754C123.031 148.899 123.34 148.605 123.682 148.392C124.023 148.168 124.492 148.056 125.09 148.056C125.58 148.056 126.028 148.136 126.434 148.296C126.85 148.445 127.207 148.669 127.506 148.968C127.804 149.267 128.039 149.629 128.21 150.056C128.38 150.472 128.466 150.952 128.466 151.496C128.466 152.04 128.38 152.541 128.21 153C128.039 153.448 127.788 153.837 127.458 154.168C127.127 154.488 126.727 154.739 126.258 154.92C125.788 155.101 125.255 155.192 124.658 155.192C124.188 155.192 123.767 155.139 123.394 155.032C123.031 154.925 122.706 154.781 122.418 154.6C122.14 154.419 121.895 154.216 121.682 153.992C121.468 153.768 121.276 153.533 121.106 153.288L122.114 152.52C122.263 152.744 122.412 152.947 122.562 153.128C122.722 153.309 122.903 153.469 123.106 153.608C123.308 153.736 123.538 153.837 123.794 153.912C124.05 153.987 124.348 154.024 124.69 154.024C125.458 154.024 126.044 153.816 126.45 153.4C126.866 152.984 127.074 152.408 127.074 151.672V151.544C127.074 150.808 126.866 150.232 126.45 149.816C126.034 149.4 125.436 149.192 124.658 149.192C124.124 149.192 123.708 149.283 123.41 149.464C123.122 149.645 122.855 149.869 122.61 150.136L121.474 149.976L121.874 143.832H127.954V145ZM141.605 150.808V149.464H146.245V150.808H141.605ZM163.113 155.192C162.462 155.192 161.891 155.112 161.401 154.952C160.91 154.781 160.499 154.552 160.169 154.264C159.849 153.976 159.603 153.635 159.433 153.24C159.273 152.845 159.193 152.419 159.193 151.96C159.193 151.192 159.401 150.584 159.817 150.136C160.233 149.688 160.782 149.373 161.465 149.192V149.064C160.867 148.861 160.393 148.536 160.041 148.088C159.699 147.629 159.529 147.08 159.529 146.44C159.529 145.587 159.843 144.909 160.473 144.408C161.102 143.896 161.982 143.64 163.113 143.64C164.243 143.64 165.123 143.896 165.753 144.408C166.382 144.909 166.697 145.587 166.697 146.44C166.697 147.08 166.521 147.629 166.169 148.088C165.827 148.536 165.358 148.861 164.761 149.064V149.192C165.443 149.373 165.993 149.688 166.409 150.136C166.825 150.584 167.033 151.192 167.033 151.96C167.033 152.419 166.947 152.845 166.777 153.24C166.617 153.635 166.371 153.976 166.041 154.264C165.71 154.552 165.299 154.781 164.809 154.952C164.329 155.112 163.763 155.192 163.113 155.192ZM163.113 154.056C163.902 154.056 164.521 153.88 164.969 153.528C165.417 153.176 165.641 152.68 165.641 152.04V151.688C165.641 151.048 165.417 150.552 164.969 150.2C164.531 149.848 163.913 149.672 163.113 149.672C162.313 149.672 161.689 149.848 161.241 150.2C160.803 150.552 160.585 151.048 160.585 151.688V152.04C160.585 152.68 160.809 153.176 161.257 153.528C161.705 153.88 162.323 154.056 163.113 154.056ZM163.113 148.584C163.838 148.584 164.387 148.429 164.761 148.12C165.145 147.811 165.337 147.368 165.337 146.792V146.568C165.337 145.992 165.139 145.549 164.745 145.24C164.361 144.931 163.817 144.776 163.113 144.776C162.409 144.776 161.859 144.931 161.465 145.24C161.081 145.549 160.889 145.992 160.889 146.568V146.792C160.889 147.368 161.075 147.811 161.449 148.12C161.833 148.429 162.387 148.584 163.113 148.584ZM169.266 155V153.832H172.466V144.824H172.354L169.538 147.448L168.754 146.6L171.714 143.832H173.81V153.832H176.754V155H169.266ZM186.076 147.928C186.076 148.76 185.948 149.544 185.692 150.28C185.447 151.005 185.127 151.672 184.732 152.28C184.337 152.877 183.9 153.411 183.42 153.88C182.951 154.339 182.487 154.712 182.028 155H180.3C180.908 154.563 181.447 154.136 181.916 153.72C182.396 153.304 182.817 152.872 183.18 152.424C183.543 151.965 183.847 151.48 184.092 150.968C184.337 150.445 184.54 149.859 184.7 149.208L184.62 149.176C184.343 149.635 183.985 150.019 183.548 150.328C183.121 150.627 182.561 150.776 181.868 150.776C181.377 150.776 180.924 150.696 180.508 150.536C180.103 150.376 179.751 150.147 179.452 149.848C179.164 149.549 178.935 149.192 178.764 148.776C178.604 148.349 178.524 147.869 178.524 147.336C178.524 146.792 178.609 146.296 178.78 145.848C178.961 145.389 179.217 145 179.548 144.68C179.879 144.349 180.273 144.093 180.732 143.912C181.201 143.731 181.719 143.64 182.284 143.64C182.871 143.64 183.399 143.741 183.868 143.944C184.337 144.136 184.732 144.419 185.052 144.792C185.383 145.155 185.633 145.603 185.804 146.136C185.985 146.669 186.076 147.267 186.076 147.928ZM182.3 149.672C183.068 149.672 183.66 149.464 184.076 149.048C184.503 148.632 184.716 148.045 184.716 147.288V147.16C184.716 146.403 184.503 145.816 184.076 145.4C183.66 144.984 183.068 144.776 182.3 144.776C181.532 144.776 180.935 144.984 180.508 145.4C180.092 145.816 179.884 146.403 179.884 147.16V147.288C179.884 148.045 180.092 148.632 180.508 149.048C180.935 149.464 181.532 149.672 182.3 149.672ZM195.686 155H188.23V153.624L191.958 150.264C192.502 149.773 192.95 149.272 193.302 148.76C193.654 148.237 193.83 147.688 193.83 147.112V146.92C193.83 146.248 193.654 145.731 193.302 145.368C192.95 144.995 192.427 144.808 191.734 144.808C191.051 144.808 190.523 144.984 190.15 145.336C189.787 145.677 189.515 146.136 189.334 146.712L188.134 146.264C188.24 145.933 188.384 145.613 188.566 145.304C188.758 144.984 188.998 144.701 189.286 144.456C189.574 144.211 189.92 144.013 190.326 143.864C190.742 143.715 191.222 143.64 191.766 143.64C192.32 143.64 192.811 143.72 193.238 143.88C193.675 144.04 194.038 144.264 194.326 144.552C194.624 144.84 194.848 145.181 194.998 145.576C195.158 145.971 195.238 146.403 195.238 146.872C195.238 147.299 195.174 147.699 195.046 148.072C194.928 148.445 194.758 148.803 194.534 149.144C194.32 149.485 194.059 149.821 193.75 150.152C193.451 150.472 193.115 150.792 192.742 151.112L189.622 153.832H195.686V155ZM208.761 150.808V149.464H213.401V150.808H208.761ZM234.061 155H226.605V153.624L230.333 150.264C230.877 149.773 231.325 149.272 231.677 148.76C232.029 148.237 232.205 147.688 232.205 147.112V146.92C232.205 146.248 232.029 145.731 231.677 145.368C231.325 144.995 230.802 144.808 230.109 144.808C229.426 144.808 228.898 144.984 228.525 145.336C228.162 145.677 227.89 146.136 227.709 146.712L226.509 146.264C226.615 145.933 226.759 145.613 226.941 145.304C227.133 144.984 227.373 144.701 227.661 144.456C227.949 144.211 228.295 144.013 228.701 143.864C229.117 143.715 229.597 143.64 230.141 143.64C230.695 143.64 231.186 143.72 231.613 143.88C232.05 144.04 232.413 144.264 232.701 144.552C232.999 144.84 233.223 145.181 233.373 145.576C233.533 145.971 233.613 146.403 233.613 146.872C233.613 147.299 233.549 147.699 233.421 148.072C233.303 148.445 233.133 148.803 232.909 149.144C232.695 149.485 232.434 149.821 232.125 150.152C231.826 150.472 231.49 150.792 231.117 151.112L227.997 153.832H234.061V155ZM239.383 148.568C240.161 148.568 240.743 148.397 241.127 148.056C241.521 147.704 241.719 147.256 241.719 146.712V146.6C241.719 146.003 241.527 145.555 241.143 145.256C240.769 144.957 240.279 144.808 239.671 144.808C239.073 144.808 238.588 144.941 238.215 145.208C237.852 145.464 237.553 145.805 237.319 146.232L236.311 145.464C236.449 145.24 236.62 145.021 236.823 144.808C237.025 144.584 237.26 144.387 237.527 144.216C237.804 144.045 238.119 143.907 238.471 143.8C238.833 143.693 239.244 143.64 239.703 143.64C240.183 143.64 240.631 143.704 241.047 143.832C241.463 143.949 241.825 144.131 242.135 144.376C242.444 144.611 242.684 144.904 242.855 145.256C243.036 145.608 243.127 146.008 243.127 146.456C243.127 146.819 243.068 147.144 242.951 147.432C242.844 147.72 242.689 147.971 242.487 148.184C242.295 148.397 242.065 148.579 241.799 148.728C241.532 148.877 241.249 148.989 240.951 149.064V149.128C241.26 149.192 241.559 149.299 241.847 149.448C242.135 149.587 242.391 149.773 242.615 150.008C242.839 150.232 243.015 150.509 243.142 150.84C243.281 151.16 243.351 151.528 243.351 151.944C243.351 152.424 243.255 152.867 243.062 153.272C242.881 153.667 242.62 154.008 242.279 154.296C241.948 154.573 241.543 154.792 241.063 154.952C240.593 155.112 240.071 155.192 239.495 155.192C239.004 155.192 238.567 155.139 238.183 155.032C237.809 154.925 237.473 154.781 237.174 154.6C236.887 154.419 236.631 154.216 236.407 153.992C236.193 153.768 236.001 153.533 235.831 153.288L236.839 152.52C236.988 152.744 237.143 152.947 237.303 153.128C237.463 153.309 237.644 153.469 237.847 153.608C238.06 153.736 238.3 153.837 238.567 153.912C238.833 153.987 239.143 154.024 239.495 154.024C240.284 154.024 240.887 153.843 241.303 153.48C241.729 153.117 241.943 152.6 241.943 151.928V151.8C241.943 151.139 241.735 150.627 241.319 150.264C240.913 149.901 240.3 149.72 239.479 149.72H238.151V148.568H239.383ZM250.704 155V152.808H245.2V151.624L250.032 143.832H251.984V151.704H253.648V152.808H251.984V155H250.704ZM246.4 151.704H250.704V144.872H250.64L246.4 151.704ZM259.066 155.192C258.479 155.192 257.951 155.096 257.482 154.904C257.013 154.701 256.613 154.419 256.282 154.056C255.962 153.683 255.711 153.229 255.53 152.696C255.359 152.163 255.274 151.565 255.274 150.904C255.274 150.072 255.397 149.293 255.642 148.568C255.898 147.832 256.218 147.165 256.602 146.568C256.997 145.96 257.434 145.427 257.914 144.968C258.394 144.499 258.863 144.12 259.322 143.832H261.05C260.442 144.269 259.898 144.696 259.418 145.112C258.949 145.528 258.533 145.965 258.17 146.424C257.807 146.872 257.503 147.357 257.258 147.88C257.013 148.392 256.81 148.973 256.65 149.624L256.73 149.656C256.997 149.197 257.349 148.819 257.786 148.52C258.223 148.211 258.789 148.056 259.482 148.056C259.973 148.056 260.421 148.136 260.826 148.296C261.231 148.456 261.583 148.685 261.882 148.984C262.181 149.283 262.41 149.645 262.57 150.072C262.741 150.499 262.826 150.973 262.826 151.496C262.826 152.04 262.735 152.541 262.554 153C262.373 153.448 262.117 153.837 261.786 154.168C261.466 154.488 261.071 154.739 260.602 154.92C260.143 155.101 259.631 155.192 259.066 155.192ZM259.05 154.056C259.818 154.056 260.41 153.848 260.826 153.432C261.253 153.016 261.466 152.429 261.466 151.672V151.544C261.466 150.787 261.253 150.2 260.826 149.784C260.41 149.368 259.818 149.16 259.05 149.16C258.282 149.16 257.685 149.368 257.258 149.784C256.842 150.2 256.634 150.787 256.634 151.544V151.672C256.634 152.429 256.842 153.016 257.258 153.432C257.685 153.848 258.282 154.056 259.05 154.056Z" fill="white"/>
<path d="M31.68 119.832V128.104C31.68 128.573 31.6 129 31.44 129.384C31.28 129.768 31.0507 130.093 30.752 130.36C30.464 130.627 30.1173 130.835 29.712 130.984C29.3067 131.123 28.864 131.192 28.384 131.192C27.5307 131.192 26.8267 130.973 26.272 130.536C25.7173 130.088 25.3547 129.464 25.184 128.664L26.464 128.392C26.5173 128.616 26.5867 128.829 26.672 129.032C26.768 129.224 26.8907 129.395 27.04 129.544C27.2 129.683 27.392 129.795 27.616 129.88C27.84 129.965 28.1067 130.008 28.416 130.008C29.024 130.008 29.4933 129.837 29.824 129.496C30.1653 129.144 30.336 128.6 30.336 127.864V121H26.304V119.832H31.68ZM40.3458 129.656H40.2818C40.1964 129.859 40.0898 130.056 39.9618 130.248C39.8338 130.429 39.6738 130.589 39.4818 130.728C39.3004 130.867 39.0818 130.979 38.8258 131.064C38.5698 131.149 38.2711 131.192 37.9298 131.192C37.0658 131.192 36.3724 130.92 35.8498 130.376C35.3271 129.821 35.0658 129.043 35.0658 128.04V122.744H36.3458V127.816C36.3458 128.573 36.5111 129.139 36.8418 129.512C37.1724 129.875 37.6578 130.056 38.2977 130.056C38.5538 130.056 38.8044 130.024 39.0498 129.96C39.2951 129.896 39.5138 129.8 39.7058 129.672C39.8978 129.544 40.0524 129.384 40.1698 129.192C40.2871 128.989 40.3458 128.749 40.3458 128.472V122.744H41.6258V131H40.3458V129.656ZM48.0835 131.192C47.2195 131.192 46.4728 131.048 45.8435 130.76C45.2248 130.461 44.6968 130.067 44.2595 129.576L45.1235 128.824C45.5182 129.24 45.9502 129.56 46.4195 129.784C46.8888 130.008 47.4542 130.12 48.1155 130.12C48.7555 130.12 49.2782 130.008 49.6835 129.784C50.0995 129.549 50.3075 129.187 50.3075 128.696C50.3075 128.483 50.2648 128.307 50.1795 128.168C50.1048 128.019 49.9982 127.901 49.8595 127.816C49.7208 127.731 49.5662 127.667 49.3955 127.624C49.2248 127.571 49.0435 127.528 48.8515 127.496L47.5555 127.304C47.2675 127.261 46.9528 127.203 46.6115 127.128C46.2808 127.053 45.9768 126.936 45.6995 126.776C45.4222 126.605 45.1875 126.381 44.9955 126.104C44.8142 125.827 44.7235 125.464 44.7235 125.016C44.7235 124.6 44.8035 124.243 44.9635 123.944C45.1342 123.635 45.3688 123.379 45.6675 123.176C45.9662 122.963 46.3182 122.808 46.7235 122.712C47.1288 122.605 47.5715 122.552 48.0515 122.552C48.7982 122.552 49.4435 122.669 49.9875 122.904C50.5422 123.139 51.0168 123.464 51.4115 123.88L50.5795 124.664C50.4835 124.547 50.3608 124.429 50.2115 124.312C50.0728 124.184 49.8968 124.072 49.6835 123.976C49.4808 123.869 49.2408 123.784 48.9635 123.72C48.6862 123.656 48.3662 123.624 48.0035 123.624C47.3528 123.624 46.8515 123.736 46.4995 123.96C46.1582 124.184 45.9875 124.509 45.9875 124.936C45.9875 125.149 46.0248 125.331 46.0995 125.48C46.1848 125.619 46.2968 125.731 46.4355 125.816C46.5742 125.901 46.7288 125.971 46.8995 126.024C47.0808 126.067 47.2622 126.104 47.4435 126.136L48.7395 126.328C49.0382 126.371 49.3528 126.429 49.6835 126.504C50.0142 126.579 50.3182 126.701 50.5955 126.872C50.8728 127.032 51.1022 127.251 51.2835 127.528C51.4755 127.805 51.5715 128.168 51.5715 128.616C51.5715 129.437 51.2515 130.072 50.6115 130.52C49.9822 130.968 49.1395 131.192 48.0835 131.192ZM57.9813 131C57.3519 131 56.8879 130.824 56.5893 130.472C56.3013 130.12 56.1573 129.667 56.1573 129.112V123.832H53.4053V122.744H55.4533C55.7306 122.744 55.9226 122.691 56.0293 122.584C56.1466 122.467 56.2053 122.269 56.2053 121.992V119.832H57.4373V122.744H61.1973V123.832H57.4373V129.912H61.1973V131H57.9813ZM67.687 120.92C67.3137 120.92 67.0523 120.845 66.903 120.696C66.7537 120.536 66.679 120.339 66.679 120.104V119.848C66.679 119.613 66.7537 119.421 66.903 119.272C67.0523 119.112 67.3137 119.032 67.687 119.032C68.0603 119.032 68.3217 119.112 68.471 119.272C68.6203 119.421 68.695 119.613 68.695 119.848V120.104C68.695 120.339 68.6203 120.536 68.471 120.696C68.3217 120.845 68.0603 120.92 67.687 120.92ZM64.071 129.912H67.047V123.832H64.071V122.744H68.327V129.912H71.111V131H64.071V129.912ZM73.5368 131V122.744H74.8168V124.088H74.8808C74.9661 123.885 75.0728 123.693 75.2008 123.512C75.3288 123.32 75.4834 123.155 75.6648 123.016C75.8568 122.877 76.0808 122.765 76.3368 122.68C76.5928 122.595 76.8914 122.552 77.2328 122.552C78.0968 122.552 78.7901 122.829 79.3128 123.384C79.8354 123.928 80.0968 124.701 80.0968 125.704V131H78.8168V125.928C78.8168 125.171 78.6514 124.611 78.3208 124.248C77.9901 123.875 77.5048 123.688 76.8648 123.688C76.6088 123.688 76.3581 123.72 76.1128 123.784C75.8674 123.848 75.6488 123.944 75.4568 124.072C75.2648 124.2 75.1101 124.365 74.9928 124.568C74.8754 124.771 74.8168 125.005 74.8168 125.272V131H73.5368ZM92.5643 119.832H96.3563C97.3163 119.832 98.0683 120.093 98.6123 120.616C99.1563 121.139 99.4283 121.837 99.4283 122.712C99.4283 123.384 99.2629 123.912 98.9323 124.296C98.6123 124.68 98.1963 124.952 97.6843 125.112V125.16C98.3136 125.309 98.8309 125.592 99.2362 126.008C99.6416 126.413 99.8443 127.005 99.8443 127.784C99.8443 128.232 99.7696 128.653 99.6203 129.048C99.4709 129.443 99.2576 129.784 98.9803 130.072C98.7136 130.36 98.3936 130.589 98.0203 130.76C97.6576 130.92 97.2629 131 96.8363 131H92.5643V119.832ZM96.4363 129.832C97.0549 129.832 97.5403 129.693 97.8923 129.416C98.2443 129.139 98.4203 128.712 98.4203 128.136V127.48C98.4203 126.915 98.2443 126.493 97.8923 126.216C97.5403 125.928 97.0549 125.784 96.4363 125.784H93.9083V129.832H96.4363ZM96.2123 124.68C96.7776 124.68 97.2203 124.557 97.5403 124.312C97.8603 124.056 98.0203 123.672 98.0203 123.16V122.536C98.0203 122.024 97.8603 121.64 97.5403 121.384C97.2203 121.128 96.7776 121 96.2123 121H93.9083V124.68H96.2123ZM106.062 120.92C105.689 120.92 105.427 120.845 105.278 120.696C105.129 120.536 105.054 120.339 105.054 120.104V119.848C105.054 119.613 105.129 119.421 105.278 119.272C105.427 119.112 105.689 119.032 106.062 119.032C106.435 119.032 106.697 119.112 106.846 119.272C106.995 119.421 107.07 119.613 107.07 119.848V120.104C107.07 120.339 106.995 120.536 106.846 120.696C106.697 120.845 106.435 120.92 106.062 120.92ZM102.446 129.912H105.422V123.832H102.446V122.744H106.702V129.912H109.486V131H102.446V129.912ZM115.288 131.192C114.69 131.192 114.152 131.091 113.672 130.888C113.202 130.685 112.797 130.397 112.456 130.024C112.125 129.64 111.869 129.187 111.688 128.664C111.506 128.131 111.416 127.539 111.416 126.888C111.416 126.227 111.506 125.629 111.688 125.096C111.88 124.563 112.141 124.109 112.472 123.736C112.802 123.352 113.197 123.059 113.656 122.856C114.125 122.653 114.642 122.552 115.208 122.552C115.762 122.552 116.264 122.653 116.712 122.856C117.17 123.059 117.56 123.341 117.88 123.704C118.2 124.056 118.445 124.477 118.616 124.968C118.786 125.459 118.872 125.997 118.872 126.584V127.192H112.76V127.576C112.76 127.939 112.818 128.275 112.936 128.584C113.053 128.893 113.218 129.16 113.432 129.384C113.656 129.608 113.922 129.784 114.232 129.912C114.552 130.029 114.904 130.088 115.288 130.088C115.842 130.088 116.322 129.96 116.728 129.704C117.133 129.448 117.442 129.096 117.656 128.648L118.6 129.288C118.354 129.843 117.944 130.301 117.368 130.664C116.802 131.016 116.109 131.192 115.288 131.192ZM115.208 123.608C114.856 123.608 114.53 123.672 114.232 123.8C113.933 123.928 113.672 124.104 113.448 124.328C113.234 124.552 113.064 124.819 112.936 125.128C112.818 125.427 112.76 125.757 112.76 126.12V126.232H117.496V126.056C117.496 125.693 117.437 125.363 117.32 125.064C117.213 124.765 117.058 124.509 116.856 124.296C116.664 124.072 116.424 123.901 116.136 123.784C115.858 123.667 115.549 123.608 115.208 123.608ZM121.458 119.16H122.738V124.088H122.802C123.335 123.064 124.183 122.552 125.346 122.552C126.359 122.552 127.148 122.931 127.714 123.688C128.29 124.445 128.578 125.507 128.578 126.872C128.578 128.237 128.29 129.299 127.714 130.056C127.148 130.813 126.359 131.192 125.346 131.192C124.183 131.192 123.335 130.68 122.802 129.656H122.738V131H121.458V119.16ZM124.85 130.056C125.596 130.056 126.172 129.832 126.578 129.384C126.994 128.925 127.202 128.323 127.202 127.576V126.168C127.202 125.421 126.994 124.824 126.578 124.376C126.172 123.917 125.596 123.688 124.85 123.688C124.562 123.688 124.29 123.725 124.034 123.8C123.778 123.875 123.554 123.987 123.362 124.136C123.17 124.275 123.015 124.451 122.898 124.664C122.791 124.867 122.738 125.107 122.738 125.384V128.36C122.738 128.637 122.791 128.883 122.898 129.096C123.015 129.299 123.17 129.475 123.362 129.624C123.554 129.763 123.778 129.869 124.034 129.944C124.29 130.019 124.562 130.056 124.85 130.056ZM134.475 131.192C133.878 131.192 133.339 131.091 132.859 130.888C132.39 130.685 131.985 130.397 131.643 130.024C131.313 129.64 131.057 129.187 130.875 128.664C130.694 128.131 130.603 127.539 130.603 126.888C130.603 126.227 130.694 125.629 130.875 125.096C131.067 124.563 131.329 124.109 131.659 123.736C131.99 123.352 132.385 123.059 132.843 122.856C133.313 122.653 133.83 122.552 134.395 122.552C134.95 122.552 135.451 122.653 135.899 122.856C136.358 123.059 136.747 123.341 137.067 123.704C137.387 124.056 137.633 124.477 137.803 124.968C137.974 125.459 138.059 125.997 138.059 126.584V127.192H131.947V127.576C131.947 127.939 132.006 128.275 132.123 128.584C132.241 128.893 132.406 129.16 132.619 129.384C132.843 129.608 133.11 129.784 133.419 129.912C133.739 130.029 134.091 130.088 134.475 130.088C135.03 130.088 135.51 129.96 135.915 129.704C136.321 129.448 136.63 129.096 136.843 128.648L137.787 129.288C137.542 129.843 137.131 130.301 136.555 130.664C135.99 131.016 135.297 131.192 134.475 131.192ZM134.395 123.608C134.043 123.608 133.718 123.672 133.419 123.8C133.121 123.928 132.859 124.104 132.635 124.328C132.422 124.552 132.251 124.819 132.123 125.128C132.006 125.427 131.947 125.757 131.947 126.12V126.232H136.683V126.056C136.683 125.693 136.625 125.363 136.507 125.064C136.401 124.765 136.246 124.509 136.043 124.296C135.851 124.072 135.611 123.901 135.323 123.784C135.046 123.667 134.737 123.608 134.395 123.608ZM140.357 129.912H142.773V123.832H140.357V122.744H144.053V124.824H144.133C144.304 124.173 144.624 123.667 145.093 123.304C145.573 122.931 146.181 122.744 146.917 122.744H148.069V124.024H146.517C145.781 124.024 145.184 124.237 144.725 124.664C144.277 125.091 144.053 125.651 144.053 126.344V129.912H147.253V131H140.357V129.912Z" fill="white"/>
<path opacity="0.9" d="M30.144 46.24C29.3653 46.24 28.656 46.112 28.016 45.856C27.376 45.6 26.8267 45.2267 26.368 44.736C25.9093 44.2453 25.552 43.6427 25.296 42.928C25.0507 42.2027 24.928 41.376 24.928 40.448C24.928 39.52 25.0667 38.6987 25.344 37.984C25.632 37.2587 26.016 36.6507 26.496 36.16C26.976 35.6693 27.536 35.296 28.176 35.04C28.816 34.784 29.4987 34.656 30.224 34.656C30.6827 34.656 31.0933 34.688 31.456 34.752C31.8293 34.816 32.1493 34.8907 32.416 34.976C32.6933 35.0613 32.9173 35.1467 33.088 35.232C33.2587 35.3173 33.376 35.3813 33.44 35.424L32.992 36.704C32.896 36.64 32.7573 36.5707 32.576 36.496C32.3947 36.4213 32.1867 36.3467 31.952 36.272C31.728 36.1973 31.4773 36.1387 31.2 36.096C30.9333 36.0427 30.6613 36.016 30.384 36.016C29.7973 36.016 29.2693 36.1173 28.8 36.32C28.3307 36.5227 27.9307 36.816 27.6 37.2C27.2693 37.584 27.0133 38.0533 26.832 38.608C26.6613 39.152 26.576 39.7653 26.576 40.448C26.576 41.1093 26.6507 41.712 26.8 42.256C26.96 42.8 27.1947 43.2693 27.504 43.664C27.8133 44.048 28.1973 44.3467 28.656 44.56C29.1253 44.7733 29.6693 44.88 30.288 44.88C31.0027 44.88 31.5947 44.8053 32.064 44.656C32.5333 44.5067 32.8853 44.3733 33.12 44.256L33.52 45.536C33.4453 45.5893 33.312 45.6587 33.12 45.744C32.928 45.8187 32.688 45.8933 32.4 45.968C32.112 46.0427 31.776 46.1067 31.392 46.16C31.008 46.2133 30.592 46.24 30.144 46.24ZM38.2739 37.504C38.4019 37.504 38.5459 37.5147 38.7059 37.536C38.8765 37.5467 39.0419 37.568 39.2019 37.6C39.3619 37.6213 39.5059 37.648 39.6339 37.68C39.7725 37.7013 39.8739 37.7227 39.9379 37.744L39.6819 39.04C39.5645 38.9973 39.3672 38.9493 39.0899 38.896C38.8232 38.832 38.4765 38.8 38.0499 38.8C37.7725 38.8 37.4952 38.832 37.2179 38.896C36.9512 38.9493 36.7752 38.9867 36.6899 39.008V46H35.2019V38.032C35.5539 37.904 35.9912 37.7867 36.5139 37.68C37.0365 37.5627 37.6232 37.504 38.2739 37.504ZM40.9098 41.856C40.9098 41.12 41.0164 40.48 41.2298 39.936C41.4431 39.3813 41.7258 38.9227 42.0778 38.56C42.4298 38.1973 42.8351 37.9253 43.2938 37.744C43.7524 37.5627 44.2218 37.472 44.7018 37.472C45.8218 37.472 46.6804 37.824 47.2778 38.528C47.8751 39.2213 48.1737 40.2827 48.1737 41.712C48.1737 41.776 48.1737 41.8613 48.1737 41.968C48.1737 42.064 48.1684 42.1547 48.1578 42.24H42.4618C42.5258 43.104 42.7764 43.76 43.2138 44.208C43.6511 44.656 44.3338 44.88 45.2618 44.88C45.7844 44.88 46.2218 44.8373 46.5738 44.752C46.9364 44.656 47.2084 44.5653 47.3898 44.48L47.5978 45.728C47.4164 45.824 47.0964 45.9253 46.6378 46.032C46.1898 46.1387 45.6778 46.192 45.1018 46.192C44.3764 46.192 43.7471 46.0853 43.2138 45.872C42.6911 45.648 42.2591 45.344 41.9178 44.96C41.5764 44.576 41.3204 44.1227 41.1497 43.6C40.9898 43.0667 40.9098 42.4853 40.9098 41.856ZM46.6218 41.04C46.6324 40.368 46.4618 39.8187 46.1098 39.392C45.7684 38.9547 45.2938 38.736 44.6858 38.736C44.3444 38.736 44.0404 38.8053 43.7738 38.944C43.5178 39.072 43.2991 39.2427 43.1178 39.456C42.9364 39.6693 42.7924 39.9147 42.6858 40.192C42.5898 40.4693 42.5258 40.752 42.4938 41.04H46.6218ZM55.6873 39.44C55.5059 39.2907 55.2446 39.1467 54.9033 39.008C54.5619 38.8693 54.1886 38.8 53.7833 38.8C53.3566 38.8 52.9886 38.88 52.6793 39.04C52.3806 39.1893 52.1353 39.4027 51.9433 39.68C51.7513 39.9467 51.6126 40.2667 51.5273 40.64C51.4419 41.0133 51.3993 41.4133 51.3993 41.84C51.3993 42.8107 51.6393 43.5627 52.1193 44.096C52.5993 44.6187 53.2393 44.88 54.0393 44.88C54.4446 44.88 54.7806 44.864 55.0473 44.832C55.3246 44.7893 55.5379 44.7467 55.6873 44.704V39.44ZM55.6873 33.84L57.1753 33.584V45.76C56.8339 45.856 56.3966 45.952 55.8633 46.048C55.3299 46.144 54.7166 46.192 54.0233 46.192C53.3833 46.192 52.8073 46.0907 52.2953 45.888C51.7833 45.6853 51.3459 45.3973 50.9833 45.024C50.6206 44.6507 50.3379 44.1973 50.1353 43.664C49.9433 43.12 49.8473 42.512 49.8473 41.84C49.8473 41.2 49.9273 40.6133 50.0872 40.08C50.2579 39.5467 50.5033 39.088 50.8233 38.704C51.1433 38.32 51.5326 38.0213 51.9913 37.808C52.4606 37.5947 52.9939 37.488 53.5913 37.488C54.0713 37.488 54.4926 37.552 54.8553 37.68C55.2286 37.808 55.5059 37.9307 55.6873 38.048V33.84ZM61.2211 46H59.7331V37.68H61.2211V46ZM60.4691 36.176C60.2025 36.176 59.9731 36.0907 59.7811 35.92C59.5998 35.7387 59.5091 35.4987 59.5091 35.2C59.5091 34.9013 59.5998 34.6667 59.7811 34.496C59.9731 34.3147 60.2025 34.224 60.4691 34.224C60.7358 34.224 60.9598 34.3147 61.1411 34.496C61.3331 34.6667 61.4291 34.9013 61.4291 35.2C61.4291 35.4987 61.3331 35.7387 61.1411 35.92C60.9598 36.0907 60.7358 36.176 60.4691 36.176ZM65.172 37.68H68.324V38.928H65.172V42.768C65.172 43.184 65.204 43.5307 65.268 43.808C65.332 44.0747 65.428 44.288 65.556 44.448C65.684 44.5973 65.844 44.704 66.036 44.768C66.228 44.832 66.452 44.864 66.708 44.864C67.156 44.864 67.5133 44.816 67.78 44.72C68.0573 44.6133 68.2493 44.5387 68.356 44.496L68.644 45.728C68.4947 45.8027 68.2333 45.8933 67.86 46C67.4867 46.1173 67.06 46.176 66.58 46.176C66.0147 46.176 65.5453 46.1067 65.172 45.968C64.8093 45.8187 64.516 45.6 64.292 45.312C64.068 45.024 63.908 44.672 63.812 44.256C63.7267 43.8293 63.684 43.3387 63.684 42.784V35.36L65.172 35.104V37.68Z" fill="white"/>
<g clip-path="url(#clip0_401_96)">
<path d="M286.272 38.4999C286.272 39.55 285.961 40.5765 285.378 41.4497C284.795 42.3229 283.966 43.0035 282.996 43.4056C282.025 43.8077 280.958 43.9131 279.928 43.7087C278.898 43.5042 277.952 42.9989 277.209 42.2568C276.466 41.5147 275.96 40.5689 275.754 39.5392C275.549 38.5094 275.653 37.4418 276.054 36.4714C276.456 35.501 277.135 34.6712 278.008 34.0871C278.881 33.5029 279.907 33.1906 280.957 33.1896H280.962C283.897 33.1896 286.272 35.5678 286.272 38.4999ZM272.622 33.2473C269.672 33.2473 267.307 35.5678 267.307 38.4711C267.307 41.4058 269.612 43.6791 272.575 43.6791C273.413 43.6791 274.132 43.5137 275.016 43.0989V40.8073C274.239 41.5869 273.549 41.8993 272.667 41.8993C270.706 41.8993 269.315 40.4766 269.315 38.4553C269.315 36.5391 270.751 35.0271 272.578 35.0271C273.507 35.0271 274.211 35.3578 275.019 36.1506V33.859C274.284 33.4569 273.46 33.2465 272.622 33.2473ZM263.823 37.3029C262.655 36.8698 262.312 36.5863 262.312 36.0456C262.312 35.4182 262.923 34.9378 263.763 34.9378C264.346 34.9378 264.826 35.1767 265.333 35.7463L266.351 34.4128C265.545 33.6938 264.5 33.2991 263.419 33.3051C261.653 33.3051 260.306 34.5309 260.306 36.1637C260.306 37.5392 260.933 38.2427 262.763 38.9016C263.527 39.1719 263.913 39.3504 264.11 39.4712C264.288 39.578 264.436 39.7296 264.538 39.911C264.64 40.0924 264.694 40.2973 264.692 40.5054C264.692 41.3139 264.049 41.9124 263.18 41.9124C262.251 41.9124 261.503 41.4478 261.057 40.5816L259.799 41.7917C260.697 43.1094 261.773 43.6922 263.256 43.6922C265.28 43.6922 266.698 42.3456 266.698 40.4136C266.693 38.8307 266.036 38.1141 263.823 37.3029ZM311 34.0374C311.001 34.2389 310.922 34.4324 310.78 34.5756C310.638 34.7188 310.445 34.7999 310.244 34.8013C310.144 34.8017 310.044 34.7822 309.951 34.7439C309.858 34.7056 309.774 34.6494 309.703 34.5784C309.632 34.5074 309.576 34.423 309.538 34.3302C309.499 34.2373 309.48 34.1379 309.48 34.0374V34.0296C309.475 33.926 309.49 33.8224 309.526 33.7251C309.562 33.6278 309.618 33.5389 309.689 33.4638C309.761 33.3887 309.847 33.3291 309.942 33.2885C310.038 33.2479 310.141 33.2272 310.244 33.2278C310.348 33.2283 310.45 33.25 310.545 33.2916C310.641 33.3332 310.726 33.3937 310.797 33.4696C310.868 33.5454 310.922 33.6349 310.957 33.7325C310.992 33.8302 311.007 33.9339 311 34.0374ZM310.845 34.0401C310.847 33.9591 310.832 33.8786 310.802 33.8032C310.772 33.7278 310.728 33.659 310.672 33.6008C310.616 33.5425 310.548 33.4959 310.474 33.4637C310.4 33.4314 310.32 33.4141 310.239 33.4127C310.157 33.4134 310.077 33.4302 310.002 33.4622C309.927 33.4942 309.86 33.5407 309.803 33.5991C309.746 33.6575 309.702 33.7265 309.672 33.8022C309.642 33.8779 309.628 33.9588 309.63 34.0401C309.63 34.3866 309.903 34.6674 310.239 34.6674C310.32 34.6661 310.4 34.6488 310.474 34.6165C310.548 34.5842 310.616 34.5376 310.672 34.4794C310.728 34.4211 310.772 34.3523 310.802 34.277C310.832 34.2016 310.847 34.1211 310.845 34.0401ZM257.114 43.4533H259.062V33.4704H257.114V43.4533ZM290.457 40.1773L287.795 33.4731H285.669L289.905 43.7106H290.953L295.266 33.4731H293.155L290.457 40.1773ZM296.143 43.4533H301.666V41.7628H298.09V39.0669H301.534V37.3764H298.09V35.1609H301.666V33.4704H296.143V43.4533ZM310.341 34.1162L310.63 34.4785H310.375L310.128 34.1372V34.4785H309.918V33.6017H310.199C310.412 33.6017 310.53 33.6962 310.53 33.8721C310.533 33.9928 310.465 34.0821 310.341 34.1162ZM310.325 33.8747C310.325 33.7986 310.27 33.7618 310.168 33.7618H310.131V33.9902H310.168C310.27 33.9902 310.325 33.9534 310.325 33.8747ZM307.102 39.2481L310.244 43.4533H307.85L305.154 39.4423H304.9V43.4533H302.954V33.4704H305.842C308.086 33.4704 309.375 34.5493 309.375 36.4183C309.375 37.9487 308.567 38.9514 307.102 39.2481ZM307.372 36.5233C307.372 35.5521 306.713 35.0454 305.501 35.0454H304.902V38.0694H305.472C306.713 38.0668 307.372 37.5261 307.372 36.5233ZM256.219 38.4711C256.215 39.2034 256.051 39.926 255.738 40.5882C255.425 41.2503 254.971 41.8358 254.408 42.3036C253.449 43.0989 252.357 43.4559 250.845 43.4559H248.003V33.4731H250.861C254.016 33.4731 256.219 35.5232 256.219 38.4711ZM254.213 38.4553C254.213 37.4998 253.809 36.5706 253.134 35.9694C252.491 35.3867 251.727 35.1609 250.47 35.1609H249.948V41.7628H250.47C251.727 41.7628 252.523 41.5213 253.134 40.9701C253.806 40.3716 254.213 39.4134 254.213 38.4553Z" fill="white"/>
</g>
<defs>
<filter id="filter0_b_401_96" x="-80" y="-80" width="495" height="345" filterUnits="userSpaceOnUse" color-interpolation-filters="sRGB">
<feFlood flood-opacity="0" result="BackgroundImageFix"/>
<feGaussianBlur in="BackgroundImage" stdDeviation="40"/>
<feComposite in2="SourceAlpha" operator="in" result="effect1_backgroundBlur_401_96"/>
<feBlend mode="normal" in="SourceGraphic" in2="effect1_backgroundBlur_401_96" result="shape"/>
</filter>
<linearGradient id="paint0_linear_401_96" x1="-48" y1="-20" x2="382" y2="205.5" gradientUnits="userSpaceOnUse">
<stop offset="0.122247" stop-color="#FF974B"/>
<stop offset="0.878935" stop-color="#FF94A1"/>
</linearGradient>
<clipPath id="clip0_401_96">
<rect width="63" height="63" fill="white" transform="translate(248 7)"/>
</clipPath>
</defs>
</svg>
